<?xml version="1.0" standalone="no"?>
<!DOCTYPE svg PUBLIC "-//W3C//DTD SVG 20010904//EN"
 "http://www.w3.org/TR/2001/REC-SVG-20010904/DTD/svg10.dtd">
<svg version="1.0" xmlns="http://www.w3.org/2000/svg"
 width="512.000000pt" height="512.000000pt" viewBox="0 0 512.000000 512.000000"
 preserveAspectRatio="xMidYMid meet">
<metadata>
Created by potrace 1.16, written by Peter Selinger 2001-2019
</metadata>
<g transform="translate(0.000000,512.000000) scale(0.100000,-0.100000)"
fill="#000000" stroke="none">
<path d="M605 5101 c-22 -10 -48 -28 -58 -39 -47 -53 -46 -13 -46 -1457 0
-772 4 -1413 9 -1483 38 -487 239 -902 622 -1285 l138 -138 0 -112 c0 -62 5
-129 10 -149 12 -40 60 -95 97 -109 12 -4 116 -9 229 -9 l206 -1 177 -89 c261
-130 508 -230 571 -230 65 0 405 139 620 254 l115 61 265 5 c258 5 266 6 298
28 62 45 72 81 72 263 l0 161 100 105 c231 242 398 511 490 791 79 240 103
461 98 875 -3 248 -3 249 -27 268 -30 25 -76 24 -101 -1 -19 -19 -20 -33 -20
-284 0 -425 -22 -602 -102 -835 -78 -226 -217 -458 -390 -650 l-48 -53 0 265
c0 164 -4 276 -11 294 -15 40 -48 73 -94 94 -38 17 -80 19 -706 19 l-666 0
-52 191 c-29 105 -50 193 -47 196 7 7 133 38 266 64 144 29 160 38 160 95 0
20 -9 39 -25 54 l-25 24 -98 -18 c-53 -9 -155 -31 -225 -48 l-128 -31 -35 34
c-52 49 -164 201 -218 295 -56 97 -120 241 -143 324 l-16 60 94 97 c212 220
417 490 595 785 31 51 58 95 60 97 6 7 107 -74 192 -154 319 -300 590 -788
671 -1208 12 -60 21 -124 21 -143 l0 -34 -107 0 c-60 0 -169 -5 -243 -10 -126
-9 -136 -12 -157 -36 -36 -40 -29 -85 17 -109 22 -11 49 -12 146 -5 65 5 174
10 241 10 l123 0 13 -33 c69 -164 311 -199 425 -61 53 64 66 120 58 248 -23
403 -191 870 -460 1279 l-18 27 466 0 466 0 0 -294 0 -295 26 -20 c36 -28 60
-26 95 8 l29 29 0 944 c-1 998 0 988 -47 1040 -10 11 -36 29 -58 39 -38 18
-102 19 -1402 19 -749 0 -1369 -3 -1378 -6 -8 -4 -23 -20 -31 -36 -13 -25 -13
-35 -3 -59 6 -17 20 -34 30 -39 11 -6 525 -10 1373 -10 l1356 0 5 -22 c3 -13
4 -275 3 -583 l-3 -560 -517 -3 -518 -2 -22 27 c-56 67 -107 123 -165 184
l-64 65 3 122 3 121 84 -137 c46 -75 93 -147 104 -159 26 -29 79 -31 107 -3
19 19 20 33 20 310 l0 291 -25 24 c-13 14 -31 25 -40 25 -13 0 -71 -25 -77
-33 0 -1 -4 -67 -7 -147 l-6 -145 -94 153 c-52 84 -103 158 -113 163 -27 14
-75 2 -93 -24 -12 -17 -15 -60 -15 -224 l0 -202 -64 47 -64 47 -3 158 -4 159
-28 24 c-34 29 -56 30 -91 3 -25 -20 -26 -23 -26 -135 l0 -114 -70 0 -70 0 0
108 c0 118 -10 145 -55 156 -35 9 -71 -12 -129 -74 l-49 -52 -56 55 c-67 65
-92 80 -126 71 -53 -13 -55 -24 -55 -334 0 -274 1 -287 20 -308 30 -32 82 -30
109 4 19 25 21 40 21 200 l0 173 36 -24 c46 -31 52 -31 98 0 l36 24 0 -58 c0
-36 -7 -71 -17 -92 -12 -23 -18 -56 -18 -104 1 -67 14 -106 56 -165 8 -12 0
-33 -38 -97 l-48 -83 -870 3 -870 2 -3 560 c-1 308 0 570 3 583 l5 22 398 0
399 0 21 23 c29 31 29 77 -1 105 -23 22 -26 22 -428 22 -371 0 -407 -2 -444
-19z m2188 -904 c477 -311 910 -973 1036 -1584 56 -272 53 -410 -8 -443 -29
-15 -88 -12 -115 5 -33 22 -43 55 -51 165 -33 497 -328 1091 -737 1487 -84 81
-165 145 -297 235 -90 61 -52 186 57 188 24 0 57 -15 115 -53z m-521 -579
c-49 -77 -186 -254 -293 -378 -171 -199 -333 -348 -523 -482 -105 -74 -129
-103 -132 -159 -1 -22 -6 -44 -10 -49 -5 -5 -49 -32 -99 -60 -162 -93 -211
-165 -203 -296 5 -66 10 -79 77 -198 86 -150 108 -177 170 -214 40 -24 56 -27
131 -27 85 0 86 0 180 54 52 30 104 60 115 67 20 13 24 7 87 -101 l66 -115
-211 0 c-184 0 -217 -3 -252 -19 -98 -45 -104 -69 -105 -436 l-1 -300 -70 75
c-335 358 -505 723 -539 1155 -5 66 -10 434 -10 818 l0 697 821 0 821 0 -20
-32z m-503 -905 c54 -158 171 -362 292 -510 l59 -71 -37 -13 c-21 -6 -90 -35
-154 -64 l-115 -51 -167 288 c-92 158 -167 291 -167 295 0 5 20 21 45 37 25
15 82 57 128 92 45 35 84 64 87 64 3 0 16 -30 29 -67z m-249 -501 c61 -107
110 -195 108 -197 -2 -1 -48 -28 -103 -59 -163 -91 -195 -81 -297 100 -76 132
-86 179 -48 227 24 31 211 140 221 129 4 -4 57 -94 119 -200z m698 -259 c6
-27 27 -103 45 -170 l34 -123 -143 0 -143 0 -42 73 c-23 39 -50 86 -61 104
l-19 32 53 27 c62 31 238 104 254 104 6 0 16 -21 22 -47z m1560 -966 l2 -517
-1177 2 -1178 3 -3 504 c-1 365 1 508 9 517 10 12 201 14 1178 12 l1166 -3 3
-518z m-824 -676 c-12 -12 -198 -92 -304 -131 -55 -20 -93 -29 -110 -25 -58
15 -380 151 -380 161 0 2 181 4 402 4 238 0 398 -4 392 -9z"/>
<path d="M1797 1266 c-77 -28 -118 -88 -119 -170 -1 -109 66 -174 192 -185 61
-6 65 -7 65 -31 0 -25 -1 -25 -108 -31 -92 -4 -110 -8 -129 -26 -26 -27 -28
-76 -3 -103 16 -18 31 -20 139 -20 95 0 128 4 155 18 51 25 92 82 98 135 14
118 -69 207 -191 207 -61 0 -84 19 -65 53 9 14 26 17 114 17 100 0 104 1 124
26 26 33 27 65 2 95 -18 22 -27 24 -128 26 -74 2 -120 -1 -146 -11z"/>
<path d="M2308 1270 c-52 -15 -98 -52 -125 -97 -23 -39 -27 -60 -31 -150 -3
-64 0 -126 8 -160 45 -204 330 -222 398 -24 15 43 15 243 1 296 -15 55 -83
119 -142 133 -52 14 -70 14 -109 2z m92 -160 c17 -17 20 -33 20 -123 0 -117
-12 -142 -66 -135 -41 4 -54 38 -54 141 0 80 2 90 25 112 29 30 49 31 75 5z"/>
<path d="M2788 1271 c-53 -17 -98 -53 -125 -98 -23 -39 -27 -60 -31 -150 -6
-131 9 -202 50 -249 49 -56 100 -77 174 -72 83 5 133 38 169 112 26 53 27 60
23 190 -3 131 -4 135 -33 178 -51 72 -154 112 -227 89z m92 -161 c17 -17 20
-33 20 -123 0 -117 -12 -142 -66 -135 -41 4 -54 38 -54 141 0 80 2 90 25 112
29 30 49 31 75 5z"/>
<path d="M3153 1268 c-40 -19 -44 -51 -41 -295 3 -211 5 -233 22 -252 22 -25
73 -28 102 -7 16 12 20 30 24 118 l5 103 59 -95 c32 -52 68 -105 79 -117 29
-33 79 -31 106 3 20 25 21 39 21 264 0 217 -2 240 -19 261 -13 16 -29 23 -55
23 -59 0 -70 -20 -76 -134 l-5 -100 -63 104 c-35 58 -69 109 -75 115 -20 16
-61 21 -84 9z"/>
<path d="M1160 4661 c-79 -26 -151 -93 -169 -158 -15 -51 -14 -296 1 -345 16
-55 79 -123 133 -143 136 -53 300 33 313 164 4 42 1 50 -19 65 -13 9 -35 16
-49 16 -31 0 -70 -26 -70 -46 0 -29 -47 -64 -85 -64 -25 0 -44 8 -60 25 -24
23 -25 29 -25 154 0 122 1 132 24 157 18 21 32 28 61 28 39 0 39 0 103 -84 45
-57 122 -27 122 49 0 109 -168 219 -280 182z"/>
<path d="M1728 4659 c-49 -14 -126 -83 -149 -134 -15 -33 -19 -66 -19 -184 0
-163 9 -204 57 -260 45 -54 105 -81 176 -81 101 0 170 44 213 135 22 45 24 64
24 190 0 164 -9 202 -57 256 -65 72 -160 102 -245 78z m130 -175 c20 -23 22
-34 22 -155 0 -125 -1 -131 -25 -154 -16 -17 -35 -25 -60 -25 -25 0 -44 8 -60
25 -24 23 -25 30 -25 152 0 102 3 133 16 151 33 48 92 50 132 6z"/>
<path d="M3790 4661 c-79 -26 -151 -93 -169 -158 -6 -21 -11 -101 -11 -178 0
-126 2 -145 24 -190 43 -92 112 -135 213 -135 35 0 74 8 99 19 50 23 107 88
123 142 7 23 26 53 42 66 37 32 39 74 4 108 -22 23 -32 25 -108 25 -101 0
-137 -19 -137 -73 0 -37 6 -47 39 -69 l23 -17 -25 -25 c-35 -35 -89 -35 -122
-1 -24 23 -25 29 -25 155 l0 132 29 29 c37 37 65 36 120 -1 51 -35 53 -35 90
-15 72 37 44 123 -55 170 -41 19 -120 27 -154 16z"/>
<path d="M2036 2919 c-53 -41 -23 -129 44 -129 33 0 80 38 80 64 0 28 -22 64
-47 75 -34 16 -47 14 -77 -10z"/>
</g>
</svg>
