<?xml version="1.0" encoding="UTF-8"?>
<svg version="1.1" xmlns="http://www.w3.org/2000/svg" width="1540" height="310">
<path d="M0 0 C0 0.66 0 1.32 0 2 C0.5775 2.24105469 1.155 2.48210938 1.75 2.73046875 C4.42944146 4.24230638 5.99612758 5.98378107 8 8.3125 C8.6909375 9.11429688 9.381875 9.91609375 10.09375 10.7421875 C10.7228125 11.48726562 11.351875 12.23234375 12 13 C12.825 13.969375 13.65 14.93875 14.5 15.9375 C16 18 16 18 16 20 C16.66 20 17.32 20 18 20 C19.4375 21.93359375 19.4375 21.93359375 21 24.4375 C22.9529916 27.81006651 22.9529916 27.81006651 26 30 C26 30.99 26 31.98 26 33 C26.66 33 27.32 33 28 33 C28 33.66 28 34.32 28 35 C28.66 35 29.32 35 30 35 C31.9423308 37.21135988 33.76283941 39.42726265 35.5625 41.75 C36.06974609 42.38421875 36.57699219 43.0184375 37.09960938 43.671875 C37.58365234 44.290625 38.06769531 44.909375 38.56640625 45.546875 C39.00927979 46.11245117 39.45215332 46.67802734 39.90844727 47.26074219 C41.09971074 49.15887706 41.57328465 50.811624 42 53 C42.66 53 43.32 53 44 53 C44 53.66 44 54.32 44 55 C44.66 55 45.32 55 46 55 C46 55.66 46 56.32 46 57 C46.66 57 47.32 57 48 57 C49.296875 58.50390625 49.296875 58.50390625 50.75 60.5625 C53.27478083 64.06983101 55.96289404 67.28814972 58.8984375 70.45703125 C60 72 60 72 60 75 C60.66 75 61.32 75 62 75 C62 75.66 62 76.32 62 77 C62.66 77 63.32 77 64 77 C65.4375 78.7578125 65.4375 78.7578125 67 81.125 C67.7734375 82.27355469 67.7734375 82.27355469 68.5625 83.4453125 C72.40610462 90.27606637 72.3353835 96.71236759 72.37109375 104.37109375 C72.38012222 105.56678482 72.3891507 106.76247589 72.39845276 107.99440002 C72.41293441 110.51845808 72.4218368 113.0425535 72.42553711 115.56665039 C72.43744817 119.42072814 72.48667096 123.27321221 72.53710938 127.12695312 C72.54657248 129.58332554 72.55380805 132.03970776 72.55859375 134.49609375 C72.57812607 135.64420029 72.59765839 136.79230682 72.61778259 137.97520447 C72.57837236 144.98640484 71.92224523 148.86496349 67 154 C61.89737374 156.49107246 57.38471875 156.15708744 51.98828125 154.703125 C49.53360339 153.83506603 47.77264439 152.92678738 46 151 C46 150.01 46 149.02 46 148 C44.68 147.34 43.36 146.68 42 146 C42 145.01 42 144.02 42 143 C41.0409375 142.62875 41.0409375 142.62875 40.0625 142.25 C38 141 38 141 37.4375 138.9375 C37.2209375 137.9784375 37.2209375 137.9784375 37 137 C36.01 136.67 35.02 136.34 34 136 C34 135.01 34 134.02 34 133 C33.34 133 32.68 133 32 133 C32 132.34 32 131.68 32 131 C31.34 131 30.68 131 30 131 C29.67 130.01 29.34 129.02 29 128 C27.515 127.01 27.515 127.01 26 126 C26 125.01 26 124.02 26 123 C25.34 123 24.68 123 24 123 C22.4921875 121.3203125 22.4921875 121.3203125 20.875 119.125 C20.33617187 118.40570313 19.79734375 117.68640625 19.2421875 116.9453125 C18 115 18 115 18 113 C17.34 113 16.68 113 16 113 C16 112.34 16 111.68 16 111 C15.34 111 14.68 111 14 111 C12.21694476 108.36107824 11.00940379 106.02821137 10 103 C9.34 103 8.68 103 8 103 C6.58084349 101.2808104 5.24061434 99.4962319 3.9375 97.6875 C0.13255856 92.47528347 -3.83994398 87.44465782 -7.95703125 82.47265625 C-10 80 -10 80 -11.96484375 77.203125 C-13.78297447 74.8063362 -13.78297447 74.8063362 -16.359375 74.51171875 C-17.14828125 74.56972656 -17.9371875 74.62773438 -18.75 74.6875 C-19.94882813 74.75517578 -19.94882813 74.75517578 -21.171875 74.82421875 C-21.77515625 74.88222656 -22.3784375 74.94023438 -23 75 C-23 75.66 -23 76.32 -23 77 C-23.66 77 -24.32 77 -25 77 C-25.226875 77.70125 -25.45375 78.4025 -25.6875 79.125 C-26.83148425 81.63087025 -27.80047192 83.08797332 -29.5625 85.125 C-32.14217763 87.80604196 -32.14217763 87.80604196 -33 91 C-33.66 91 -34.32 91 -35 91 C-35 91.66 -35 92.32 -35 93 C-35.66 93 -36.32 93 -37 93 C-37.2475 93.721875 -37.495 94.44375 -37.75 95.1875 C-39.12269592 98.27606582 -40.72353296 100.51011418 -43 103 C-43.66 103 -44.32 103 -45 103 C-45.28875 103.763125 -45.5775 104.52625 -45.875 105.3125 C-47 108 -47 108 -49 111 C-49.66 111 -50.32 111 -51 111 C-51.495 112.98 -51.495 112.98 -52 115 C-52.66 115 -53.32 115 -54 115 C-54.2578125 115.72574219 -54.515625 116.45148438 -54.78125 117.19921875 C-56.05242499 120.12047667 -57.54016402 122.30872649 -59.5 124.8125 C-60.1084375 125.60269531 -60.716875 126.39289063 -61.34375 127.20703125 C-61.8903125 127.79871094 -62.436875 128.39039063 -63 129 C-63.66 129 -64.32 129 -65 129 C-65.2475 129.70125 -65.495 130.4025 -65.75 131.125 C-67.17180238 134.39514548 -68.87246288 137.141122 -71 140 C-71.66 140 -72.32 140 -73 140 C-73.12375 140.639375 -73.2475 141.27875 -73.375 141.9375 C-73.58125 142.618125 -73.7875 143.29875 -74 144 C-74.66 144.33 -75.32 144.66 -76 145 C-76.33 145.99 -76.66 146.98 -77 148 C-79.1046217 150.02945664 -80.58215671 150.90357462 -83.4375 151.5625 C-86.59359238 150.86969923 -87.95863688 149.44906951 -89.9392395 146.95129395 C-92.02869017 143.10770018 -91.64702647 138.97643844 -91.55859375 134.703125 C-91.55626236 133.71431335 -91.55393097 132.72550171 -91.55152893 131.70672607 C-91.54180893 129.61884921 -91.52006224 127.53099804 -91.48706055 125.44335938 C-91.43787767 122.27433458 -91.42558851 119.10687123 -91.41992188 115.9375 C-91.4058245 113.90102542 -91.38961604 111.86456414 -91.37109375 109.828125 C-91.36573105 108.89236633 -91.36036835 107.95660767 -91.35484314 106.99249268 C-91.20773814 98.70364726 -90.53354004 90.51532556 -86 83.375 C-85.484375 82.53710938 -84.96875 81.69921875 -84.4375 80.8359375 C-83.963125 80.23007813 -83.48875 79.62421875 -83 79 C-82.34 79 -81.68 79 -81 79 C-80.71125 78.236875 -80.4225 77.47375 -80.125 76.6875 C-79 74 -79 74 -77 71 C-76.34 71 -75.68 71 -75 71 C-75 70.34 -75 69.68 -75 69 C-74.34 69 -73.68 69 -73 69 C-72.7525 68.45859375 -72.505 67.9171875 -72.25 67.359375 C-70.72011396 64.4717151 -68.90849003 61.90223982 -67 59.25 C-66.29875 58.26515625 -65.5975 57.2803125 -64.875 56.265625 C-64.25625 55.51796875 -63.6375 54.7703125 -63 54 C-62.34 54 -61.68 54 -61 54 C-60.79375 53.34 -60.5875 52.68 -60.375 52 C-58.50875748 47.92819814 -56.02438473 44.31203002 -53 41 C-52.34 41 -51.68 41 -51 41 C-50.7525 40.443125 -50.505 39.88625 -50.25 39.3125 C-48.77075182 36.57589087 -47.06532561 34.32349131 -45 32 C-44.34 32 -43.68 32 -43 32 C-42.896875 31.360625 -42.79375 30.72125 -42.6875 30.0625 C-42.460625 29.381875 -42.23375 28.70125 -42 28 C-41.01 27.67 -40.02 27.34 -39 27 C-38.855625 26.401875 -38.71125 25.80375 -38.5625 25.1875 C-37.80588481 22.24510759 -36.16146052 21.09788815 -34 19 C-33.505 18.175 -33.01 17.35 -32.5 16.5 C-30.9375675 13.89594583 -29.13713142 12.13713142 -27 10 C-25.76487921 7.86690808 -25.76487921 7.86690808 -25 6 C-24.34 6 -23.68 6 -23 6 C-23 5.34 -23 4.68 -23 4 C-22.34 4 -21.68 4 -21 4 C-21 3.34 -21 2.68 -21 2 C-13.27793698 -2.16490899 -8.46585095 -2.46920653 0 0 Z " fill="#04EAFD" transform="translate(233,7)"/>
<path d="M0 0 C3.93329074 2.28679694 6.42668374 5.63909033 8.6875 9.5625 C8.6875 10.5525 8.6875 11.5425 8.6875 12.5625 C9.3475 12.5625 10.0075 12.5625 10.6875 12.5625 C12.28125 14.4765625 12.28125 14.4765625 14.1875 17.1875 C14.8990625 18.19039062 15.610625 19.19328125 16.34375 20.2265625 C16.72402344 20.76829102 17.10429687 21.31001953 17.49609375 21.86816406 C19.12415483 24.18348043 20.77102385 26.48513445 22.41821289 28.78686523 C23.26572531 29.97246974 24.11126185 31.1594891 24.95483398 32.34790039 C26.95862571 35.16780725 28.98551522 37.95838557 31.06640625 40.72265625 C31.78699219 41.68042969 32.50757813 42.63820312 33.25 43.625 C33.89066406 44.46160156 34.53132813 45.29820312 35.19140625 46.16015625 C36.76691298 48.69001693 37.1611074 50.66483405 37.6875 53.5625 C39.00397119 54.26187532 40.33772151 54.92979133 41.6875 55.5625 C42.04912029 56.88844105 42.38478039 58.22188457 42.6875 59.5625 C43.6775 59.8925 44.6675 60.2225 45.6875 60.5625 C46.875 63.125 46.875 63.125 47.6875 65.5625 C48.3475 65.5625 49.0075 65.5625 49.6875 65.5625 C49.6875 66.8825 49.6875 68.2025 49.6875 69.5625 C50.3475 69.5625 51.0075 69.5625 51.6875 69.5625 C51.6875 70.2225 51.6875 70.8825 51.6875 71.5625 C52.3475 71.5625 53.0075 71.5625 53.6875 71.5625 C54.3475 73.5425 55.0075 75.5225 55.6875 77.5625 C56.3475 77.5625 57.0075 77.5625 57.6875 77.5625 C59.6875 80.5625 59.6875 80.5625 59.6875 83.5625 C60.3475 83.5625 61.0075 83.5625 61.6875 83.5625 C61.6875 84.2225 61.6875 84.8825 61.6875 85.5625 C62.3475 85.5625 63.0075 85.5625 63.6875 85.5625 C64.3475 87.5425 65.0075 89.5225 65.6875 91.5625 C66.3475 91.5625 67.0075 91.5625 67.6875 91.5625 C67.6875 92.2225 67.6875 92.8825 67.6875 93.5625 C68.3475 93.5625 69.0075 93.5625 69.6875 93.5625 C70.3475 95.5425 71.0075 97.5225 71.6875 99.5625 C72.3475 99.5625 73.0075 99.5625 73.6875 99.5625 C73.6875 100.2225 73.6875 100.8825 73.6875 101.5625 C74.3475 101.5625 75.0075 101.5625 75.6875 101.5625 C77.13713959 103.46624355 78.49934323 105.43717159 79.8125 107.4375 C80.89917969 109.07332031 80.89917969 109.07332031 82.0078125 110.7421875 C83.6875 113.5625 83.6875 113.5625 83.6875 115.5625 C84.3475 115.5625 85.0075 115.5625 85.6875 115.5625 C86.71548299 117.2120541 87.70929855 118.88294657 88.6875 120.5625 C90.15944637 122.41843238 91.66105851 124.25112276 93.1875 126.0625 C101.18674357 135.5549357 101.18674357 135.5549357 101.6875 140.5625 C101.0275 141.5525 100.3675 142.5425 99.6875 143.5625 C96.64284487 143.85385085 93.80202272 143.9508613 90.75561523 143.91894531 C89.36770279 143.92201187 89.36770279 143.92201187 87.95175171 143.92514038 C84.88300026 143.92815682 81.81478163 143.90964666 78.74609375 143.890625 C76.62142571 143.88756903 74.49675568 143.88569168 72.37208557 143.88494873 C67.91570389 143.88034037 63.45950238 143.86589306 59.00317383 143.84375 C53.27722055 143.81545006 47.55140929 143.80453745 41.82539272 143.8000679 C37.43751084 143.79592061 33.04965797 143.78610922 28.66179085 143.77419281 C26.54976701 143.76847672 24.43774036 143.76372248 22.3257122 143.75992584 C19.3804211 143.75308714 16.43524496 143.73946665 13.48999023 143.72363281 C12.60840744 143.72251495 11.72682465 143.72139709 10.81852722 143.72024536 C4.80218579 143.67718579 4.80218579 143.67718579 3.6875 142.5625 C3.36303663 139.46207227 3.17415559 136.3604275 2.96875 133.25 C2.98142201 130.64653248 2.98142201 130.64653248 1.6875 129.5625 C1.53967712 126.94493024 1.45245578 124.3504018 1.40625 121.73046875 C1.37863586 120.54823479 1.37863586 120.54823479 1.35046387 119.34211731 C1.29153532 116.8114897 1.23883064 114.28079245 1.1875 111.75 C1.11975578 108.43084973 1.04599118 105.11190996 0.96875 101.79296875 C0.95517456 101.02929489 0.94159912 100.26562103 0.9276123 99.47880554 C0.84708044 96.02381868 0.63826038 92.8850547 -0.3125 89.5625 C-0.4416789 88.16949872 -0.53392139 86.77269821 -0.59375 85.375 C-0.64982422 84.20324219 -0.64982422 84.20324219 -0.70703125 83.0078125 C-0.77734375 81.37760417 -0.84765625 79.74739583 -0.91796875 78.1171875 C-0.97404297 76.94542969 -0.97404297 76.94542969 -1.03125 75.75 C-1.06154297 75.04230469 -1.09183594 74.33460938 -1.12304688 73.60546875 C-1.25507355 71.5687865 -1.25507355 71.5687865 -1.8125 69.67349243 C-2.63189264 66.21402911 -2.53234479 62.68748212 -2.59375 59.1484375 C-2.61215942 58.33758698 -2.63056885 57.52673645 -2.64953613 56.6913147 C-2.72807799 53.22826065 -2.79609677 49.76501995 -2.86474609 46.30175781 C-2.91641538 43.77138502 -2.97366785 41.24118151 -3.03125 38.7109375 C-3.05161316 37.53124893 -3.05161316 37.53124893 -3.0723877 36.32772827 C-3.07941729 32.31428772 -3.07941729 32.31428772 -4.3125 28.5625 C-4.5502995 25.9114759 -4.73605924 23.28142188 -4.875 20.625 C-4.9174585 19.86388916 -4.95991699 19.10277832 -5.00366211 18.31860352 C-5.31459719 12.39707319 -5.42776216 6.49209773 -5.3125 0.5625 C-2.3125 -0.4375 -2.3125 -0.4375 0 0 Z " fill="#FEFEFE" transform="translate(221.3125,99.4375)"/>
<path d="M0 0 C3.02981663 1.99330042 5.68957004 4.19747847 8 7 C8 7.99 8 8.98 8 10 C8.59941406 10.26167969 9.19882813 10.52335937 9.81640625 10.79296875 C12.13061764 12.07220188 13.29659445 13.26250442 14.9375 15.3125 C18.09298517 19.1368536 21.52090187 22.57343059 25.08984375 26.015625 C25.82332031 26.73234375 26.55679688 27.4490625 27.3125 28.1875 C28.00988281 28.86167969 28.70726563 29.53585938 29.42578125 30.23046875 C31 32 31 32 31 34 C32.485 34.495 32.485 34.495 34 35 C34 35.99 34 36.98 34 38 C34.66 38 35.32 38 36 38 C37.89179778 41.21032884 38.25242532 43.5816815 38.25878906 47.28759766 C38.26509338 48.34194 38.27139771 49.39628235 38.27789307 50.48257446 C38.2738446 51.61496552 38.26979614 52.74735657 38.265625 53.9140625 C38.26753845 55.08004974 38.2694519 56.24603699 38.27142334 57.44735718 C38.27278375 59.91021948 38.26909736 62.37308899 38.26074219 64.8359375 C38.25002169 68.61735005 38.26065254 72.39828956 38.2734375 76.1796875 C38.27211626 78.57031355 38.2695546 80.96093931 38.265625 83.3515625 C38.26967346 84.48800201 38.27372192 85.62444153 38.27789307 86.7953186 C38.26843658 88.36737564 38.26843658 88.36737564 38.25878906 89.97119141 C38.25719788 90.89622467 38.25560669 91.82125793 38.25396729 92.77432251 C38 95 38 95 36 97 C32.875 97.125 32.875 97.125 30 97 C29.34 95.68 28.68 94.36 28 93 C27.34 93 26.68 93 26 93 C24.44921875 90.98828125 24.44921875 90.98828125 22.6875 88.3125 C18.86509617 82.6781282 18.86509617 82.6781282 14 78 C11.56376878 77.5205095 11.56376878 77.5205095 9 78 C6.90129169 79.59755005 6.90129169 79.59755005 5.125 81.875 C4.444375 82.68582031 3.76375 83.49664062 3.0625 84.33203125 C0.36090353 87.82671002 -2.13612807 91.43357243 -4.5546875 95.12890625 C-5.27011719 96.05509766 -5.27011719 96.05509766 -6 97 C-6.66 97 -7.32 97 -8 97 C-8.28875 97.763125 -8.5775 98.52625 -8.875 99.3125 C-10 102 -10 102 -12 105 C-12.66 105 -13.32 105 -14 105 C-14.2475 105.53625 -14.495 106.0725 -14.75 106.625 C-16.30652537 109.5823982 -18.03435673 112.29724051 -20 115 C-20.66 115 -21.32 115 -22 115 C-22.28875 115.5775 -22.5775 116.155 -22.875 116.75 C-23.91666667 118.83333333 -24.95833333 120.91666667 -26 123 C-26.66 123 -27.32 123 -28 123 C-28.26167969 123.556875 -28.52335937 124.11375 -28.79296875 124.6875 C-31.88944968 130.61991654 -36.03702734 137.704673 -42 141 C-45.08562083 141 -46.39693704 140.5771641 -48.62516785 138.44462585 C-50.56736213 134.99115821 -50.41078717 131.74291424 -50.37231445 127.88598633 C-50.37596512 127.07080536 -50.37961578 126.25562439 -50.38337708 125.41574097 C-50.39148164 122.72095898 -50.37786745 120.02677879 -50.36328125 117.33203125 C-50.36276238 115.45358785 -50.36328112 113.57514391 -50.36479187 111.69670105 C-50.36470213 107.75662137 -50.35427459 103.81674622 -50.33618164 99.87670898 C-50.31357259 94.84431967 -50.31293618 89.81223122 -50.31969929 84.77980518 C-50.32305459 80.89771386 -50.31637858 77.01569014 -50.30657005 73.13361168 C-50.30273876 71.27939903 -50.30156119 69.42517883 -50.3031559 67.57096291 C-50.30353004 64.9674941 -50.29080722 62.36439861 -50.2746582 59.76098633 C-50.27713562 59.00481522 -50.27961304 58.2486441 -50.28216553 57.46955872 C-50.2295232 52.10640184 -49.33670201 47.18862725 -48 42 C-47.34 42 -46.68 42 -46 42 C-45.34 40.68 -44.68 39.36 -44 38 C-43.34 38 -42.68 38 -42 38 C-42 37.34 -42 36.68 -42 36 C-41.34 36 -40.68 36 -40 36 C-39.75894531 35.44183594 -39.51789062 34.88367188 -39.26953125 34.30859375 C-37.73113421 31.51107791 -35.84438036 29.41513085 -33.6875 27.0625 C-32.88570312 26.1859375 -32.08390625 25.309375 -31.2578125 24.40625 C-29.55370269 22.59010529 -27.83879417 20.80688469 -26.0625 19.0625 C-23.84474139 16.97957124 -23.84474139 16.97957124 -22 14 C-21.34 14 -20.68 14 -20 14 C-19.72800781 13.41347656 -19.45601562 12.82695313 -19.17578125 12.22265625 C-15.16587356 4.6424653 -9.05742518 -1.53515681 0 0 Z " fill="#037194" transform="translate(89,84)"/>
<path d="M0 0 C0.680625 -0.00515625 1.36125 -0.0103125 2.0625 -0.015625 C4 0.25 4 0.25 7 2.25 C7 2.91 7 3.57 7 4.25 C7.66 4.25 8.32 4.25 9 4.25 C9 4.91 9 5.57 9 6.25 C9.66 6.25 10.32 6.25 11 6.25 C11 6.91 11 7.57 11 8.25 C11.66 8.25 12.32 8.25 13 8.25 C14.296875 9.7890625 14.296875 9.7890625 15.75 11.875 C17.78890218 14.70736657 19.85396297 17.21149535 22.375 19.625 C23.24125 20.49125 24.1075 21.3575 25 22.25 C25 22.91 25 23.57 25 24.25 C25.66 24.25 26.32 24.25 27 24.25 C27 24.91 27 25.57 27 26.25 C27.66 26.25 28.32 26.25 29 26.25 C29 26.91 29 27.57 29 28.25 C29.66 28.25 30.32 28.25 31 28.25 C31 28.91 31 29.57 31 30.25 C31.66 30.25 32.32 30.25 33 30.25 C33.495 32.23 33.495 32.23 34 34.25 C34.99 34.25 35.98 34.25 37 34.25 C37.495 36.23 37.495 36.23 38 38.25 C38.99 38.25 39.98 38.25 41 38.25 C44.14344298 41.05274853 45.2505329 43.33245661 45.50120544 47.43765259 C45.52186053 49.12188264 45.52051989 50.806471 45.50170898 52.49072266 C45.50981346 53.87447334 45.50981346 53.87447334 45.51808167 55.28617859 C45.53056841 58.32913491 45.5140806 61.37114521 45.49609375 64.4140625 C45.49624871 66.52965342 45.49773723 68.64524462 45.50050354 70.76083374 C45.50188742 75.19094416 45.48932893 79.62073076 45.46655273 84.05078125 C45.43813362 89.73511341 45.44091507 95.41890894 45.45364285 101.10328102 C45.46058936 105.46982424 45.45282306 109.83624291 45.44038582 114.20277023 C45.43586377 116.29918312 45.43554107 118.39560935 45.43945122 120.49202347 C45.44235422 123.41765133 45.42590122 126.34253276 45.40405273 129.26806641 C45.40855438 130.13774551 45.41305603 131.00742462 45.41769409 131.90345764 C45.34407458 137.82180031 45.34407458 137.82180031 43.62323093 139.96338463 C42 141.25 42 141.25 39.640625 141.76953125 C35.86847172 141.02737683 34.13042475 138.75447175 31.75 135.9375 C31.27763916 135.39859131 30.80527832 134.85968262 30.31860352 134.30444336 C28.86312211 132.6326297 27.43044093 130.94325548 26 129.25 C25.55446777 128.73276367 25.10893555 128.21552734 24.64990234 127.68261719 C16.86042143 118.6384745 16.86042143 118.6384745 15 113.25 C14.34 113.25 13.68 113.25 13 113.25 C13 112.59 13 111.93 13 111.25 C12.34 111.25 11.68 111.25 11 111.25 C7 105.83823529 7 105.83823529 7 103.25 C6.34 103.25 5.68 103.25 5 103.25 C5 102.59 5 101.93 5 101.25 C4.34 101.25 3.68 101.25 3 101.25 C1.4921875 99.5703125 1.4921875 99.5703125 -0.125 97.375 C-0.66382813 96.65570313 -1.20265625 95.93640625 -1.7578125 95.1953125 C-3 93.25 -3 93.25 -3 91.25 C-3.66 91.25 -4.32 91.25 -5 91.25 C-5 90.59 -5 89.93 -5 89.25 C-5.66 89.25 -6.32 89.25 -7 89.25 C-7 88.26 -7 87.27 -7 86.25 C-8.32 85.59 -9.64 84.93 -11 84.25 C-11 83.26 -11 82.27 -11 81.25 C-11.66 81.25 -12.32 81.25 -13 81.25 C-13 80.59 -13 79.93 -13 79.25 C-13.66 79.25 -14.32 79.25 -15 79.25 C-16.31153763 77.78190495 -17.54994075 76.24804216 -18.75 74.6875 C-21.25763148 71.46144125 -23.78701789 68.30533462 -26.5 65.25 C-29 62.25 -29 62.25 -29 60.25 C-29.66 60.25 -30.32 60.25 -31 60.25 C-32.36176922 58.60648543 -33.68962066 56.93477344 -35 55.25 C-36.64740076 53.5642876 -38.31066078 51.8936814 -40 50.25 C-41 49.25 -41 49.25 -41.09765625 46.74609375 C-41.08605469 45.73675781 -41.07445312 44.72742188 -41.0625 43.6875 C-41.05347656 42.67558594 -41.04445313 41.66367188 -41.03515625 40.62109375 C-41.02355469 39.83863281 -41.01195312 39.05617187 -41 38.25 C-40.34 38.25 -39.68 38.25 -39 38.25 C-38.34 36.93 -37.68 35.61 -37 34.25 C-36.34 34.25 -35.68 34.25 -35 34.25 C-35 33.59 -35 32.93 -35 32.25 C-34.34 32.25 -33.68 32.25 -33 32.25 C-33 31.59 -33 30.93 -33 30.25 C-32.34 30.25 -31.68 30.25 -31 30.25 C-31 29.59 -31 28.93 -31 28.25 C-30.34 28.25 -29.68 28.25 -29 28.25 C-28.76410156 27.69570312 -28.52820313 27.14140625 -28.28515625 26.5703125 C-26.6873545 23.68552758 -24.68148991 21.53827968 -22.4375 19.125 C-19.36280814 15.93492491 -19.36280814 15.93492491 -17 12.25 C-16.34 12.25 -15.68 12.25 -15 12.25 C-15 11.59 -15 10.93 -15 10.25 C-14.34 10.25 -13.68 10.25 -13 10.25 C-13 9.59 -13 8.93 -13 8.25 C-12.34 8.25 -11.68 8.25 -11 8.25 C-10.34 6.93 -9.68 5.61 -9 4.25 C-8.34 4.25 -7.68 4.25 -7 4.25 C-7 3.59 -7 2.93 -7 2.25 C-4.00261059 0.25174039 -3.36652492 -0.02550398 0 0 Z " fill="#03A2BC" transform="translate(363,83.75)"/>
<path d="M0 0 C0 23.43 0 46.86 0 71 C-1.98 70.01 -3.96 69.02 -6 68 C-10.11814402 67.24231326 -10.11814402 67.24231326 -14 68 C-18.76489413 71.79185259 -21.82241458 77.20188482 -25.08203125 82.26171875 C-27.64966015 85.92751887 -30.47138116 89.35652727 -33.3125 92.8125 C-37.87276315 98.36061743 -42.28897351 103.97211954 -46.5625 109.74609375 C-50.20867625 114.64758751 -53.98713193 119.44878319 -57.75512695 124.25683594 C-60.54405726 127.81968966 -63.30795085 131.39170574 -65.98046875 135.04296875 C-66.65638062 135.95671265 -66.65638062 135.95671265 -67.34594727 136.88891602 C-68.54442241 138.51563042 -69.72973329 140.15202042 -70.9140625 141.7890625 C-71.94660156 142.88347656 -71.94660156 142.88347656 -73 144 C-74.32 144 -75.64 144 -77 144 C-78.21831242 141.56337516 -78.16632566 139.91439458 -78.22460938 137.18994141 C-78.24712769 136.18774567 -78.269646 135.18554993 -78.29284668 134.15298462 C-78.36408705 129.53256824 -78.42146971 124.91231399 -78.45996094 120.29150391 C-78.48646034 117.86486967 -78.52726466 115.43834566 -78.58300781 113.01220703 C-79.16598046 87.32980351 -79.16598046 87.32980351 -71 78 C-70.52820313 77.3797998 -70.05640625 76.75959961 -69.5703125 76.12060547 C-68.36608144 74.56590992 -67.0599813 73.09169686 -65.75 71.625 C-64.79604769 70.53571533 -63.84429424 69.44450182 -62.89453125 68.3515625 C-62.41580566 67.80274414 -61.93708008 67.25392578 -61.44384766 66.68847656 C-59.02403225 63.85867553 -56.72850742 60.9343892 -54.4375 58 C-53.98149414 57.41694092 -53.52548828 56.83388184 -53.05566406 56.2331543 C-50.84447935 53.39599185 -48.65029331 50.54657851 -46.47265625 47.68359375 C-42.31944372 42.22805419 -38.10012282 36.88374778 -33.625 31.6875 C-28.87064727 26.16483571 -24.46748519 20.42243901 -20.14697266 14.55541992 C-7.94995753 -1.98748938 -7.94995753 -1.98748938 0 0 Z " fill="#037193" transform="translate(224,10)"/>
<path d="M0 0 C2.6875 -0.3125 2.6875 -0.3125 6 0 C10.32075198 3.45660158 14.11226711 8.25657621 17 13 C17 13.99 17 14.98 17 16 C18.32 16.33 19.64 16.66 21 17 C21 17.99 21 18.98 21 20 C21.99 20.33 22.98 20.66 24 21 C27.14293274 24.3225289 28 25.29735282 28 30 C28.928125 30.0928125 28.928125 30.0928125 29.875 30.1875 C32 31 32 31 33.25 33.5625 C33.4975 34.366875 33.745 35.17125 34 36 C34.66 36 35.32 36 36 36 C40 41.41176471 40 41.41176471 40 44 C40.66 44 41.32 44 42 44 C43.5078125 45.6796875 43.5078125 45.6796875 45.125 47.875 C45.66382813 48.59429687 46.20265625 49.31359375 46.7578125 50.0546875 C48 52 48 52 48 54 C48.66 54 49.32 54 50 54 C50 54.66 50 55.32 50 56 C50.66 56 51.32 56 52 56 C53.78305524 58.63892176 54.99059621 60.97178863 56 64 C56.66 64 57.32 64 58 64 C58 64.99 58 65.98 58 67 C58.66 67 59.32 67 60 67 C64 71.47058824 64 71.47058824 64 74 C64.66 74 65.32 74 66 74 C66 74.66 66 75.32 66 76 C66.66 76 67.32 76 68 76 C69.64772007 78.3727169 70.86765311 80.33826554 71.4375 83.1875 C71.623125 83.785625 71.80875 84.38375 72 85 C72.99 85.37125 72.99 85.37125 74 85.75 C76 87 76 87 76.484375 88.8984375 C76.7261606 90.92516972 76.8685891 92.96313109 77 95 C74.69803198 96.15098401 73.34326162 96.14417234 70.78149414 96.17700195 C69.47487572 96.19625481 69.47487572 96.19625481 68.14186096 96.21589661 C67.19914841 96.22328354 66.25643585 96.23067047 65.28515625 96.23828125 C63.83513466 96.25038887 63.83513466 96.25038887 62.3558197 96.26274109 C60.30892737 96.27658351 58.26201193 96.28730495 56.21508789 96.29516602 C53.07849769 96.31241204 49.94295239 96.35630048 46.80664062 96.40039062 C44.82032027 96.41051444 42.83399094 96.41903151 40.84765625 96.42578125 C39.90696793 96.44328934 38.9662796 96.46079742 37.99708557 96.47883606 C31.51814976 96.45715465 31.51814976 96.45715465 28.95092773 94.19213867 C27.65420693 91.20285598 26.84231509 88.14464301 26 85 C25.62875 84.34 25.2575 83.68 24.875 83 C23.56915585 80.01521337 23.87652562 77.21033399 24 74 C23.34 74 22.68 74 22 74 C20.03372534 70.48879525 19.10138532 66.85484861 18 63 C17.67 62.34 17.34 61.68 17 61 C15.87383841 58.74767683 15.28500133 56.46587105 14.62890625 54.04296875 C13.90542037 51.69276308 13.00088531 49.46031916 12.0625 47.1875 C10.69925873 43.8645994 9.53878927 40.58084214 8.5625 37.125 C7.4602867 33.282311 6.07421845 29.67474277 4.5 26 C-3.38783661 7.51585275 -3.38783661 7.51585275 -1.0625 1.625 C-0.5365625 0.820625 -0.5365625 0.820625 0 0 Z " fill="#FDFDFD" transform="translate(320,147)"/>
<path d="M0 0 C22.08716276 0 41.28796509 1.22429302 58 17 C58.76957031 17.71671875 59.53914062 18.4334375 60.33203125 19.171875 C73.55273691 32.59528313 78.52972309 50.01857794 78.42236328 68.47753906 C77.88379476 87.056393 70.07519333 103.03395611 57 116 C40.7144423 130.25936079 20.86171084 131.05174042 0 132 C0 88.44 0 44.88 0 0 Z M8 9 C8 46.62 8 84.24 8 123 C25.61195415 123 40.8904518 118.94061407 53.8203125 106.37109375 C65.34038027 93.83940712 70.56504706 78.44065524 69.875 61.5 C68.48948221 45.74376285 61.92140976 34.11101757 51 23 C50.4225 22.40960938 49.845 21.81921875 49.25 21.2109375 C37.97114274 10.63700882 22.72864316 9 8 9 Z " fill="#FEFEFE" transform="translate(520,112)"/>
<path d="M0 0 C2.49625024 2.23183594 4.72826588 4.53072378 7 7 C7.33 4.03 7.66 1.06 8 -2 C10.64 -2 13.28 -2 16 -2 C16 25.06 16 52.12 16 80 C13.36 80 10.72 80 8 80 C7.67 75.38 7.34 70.76 7 66 C5.39125 67.794375 5.39125 67.794375 3.75 69.625 C-4.90026033 78.25995014 -15.82905769 81.92393183 -27.8125 82.3125 C-41.89657819 82.00826959 -53.1597605 76.84863781 -62.88671875 66.70703125 C-72.33951861 54.59836156 -74.17180009 41.92049543 -73 27 C-70.77605182 16.00734186 -63.71327357 5.9326716 -55 -1 C-37.66872559 -11.66358084 -16.75371464 -12.51482299 0 0 Z M-58.23828125 15.578125 C-64.23359098 23.82001421 -65.666326 33.0182138 -64.4375 42.9375 C-62.55954548 52.72524973 -56.8671411 60.93799059 -49 67 C-39.11622681 72.58044498 -29.06962867 74.82275993 -17.9375 71.875 C-7.89126014 68.47908793 -0.2312351 61.72230028 5.38671875 52.796875 C9.64849211 44.00416365 9.71575198 31.76069586 6.5625 22.5625 C1.39421777 11.91765204 -7.63176418 5.00187385 -18.375 0.625 C-35.3102216 -2.29486579 -47.26565548 2.73002096 -58.23828125 15.578125 Z " fill="#FEFEFE" transform="translate(1126,164)"/>
<path d="M0 0 C2.49625024 2.23183594 4.72826588 4.53072378 7 7 C7.33 4.03 7.66 1.06 8 -2 C10.64 -2 13.28 -2 16 -2 C16 25.06 16 52.12 16 80 C13.36 80 10.72 80 8 80 C7.67 75.38 7.34 70.76 7 66 C5.39125 67.794375 5.39125 67.794375 3.75 69.625 C-4.90026033 78.25995014 -15.82905769 81.92393183 -27.8125 82.3125 C-41.89657819 82.00826959 -53.1597605 76.84863781 -62.88671875 66.70703125 C-72.33951861 54.59836156 -74.17180009 41.92049543 -73 27 C-70.77605182 16.00734186 -63.71327357 5.9326716 -55 -1 C-37.66872559 -11.66358084 -16.75371464 -12.51482299 0 0 Z M-58.23828125 15.578125 C-64.23359098 23.82001421 -65.666326 33.0182138 -64.4375 42.9375 C-62.55954548 52.72524973 -56.8671411 60.93799059 -49 67 C-39.11622681 72.58044498 -29.06962867 74.82275993 -17.9375 71.875 C-7.89126014 68.47908793 -0.2312351 61.72230028 5.38671875 52.796875 C9.64849211 44.00416365 9.71575198 31.76069586 6.5625 22.5625 C1.39421777 11.91765204 -7.63176418 5.00187385 -18.375 0.625 C-35.3102216 -2.29486579 -47.26565548 2.73002096 -58.23828125 15.578125 Z " fill="#FEFEFE" transform="translate(689,164)"/>
<path d="M0 0 C0.680625 -0.00515625 1.36125 -0.0103125 2.0625 -0.015625 C4 0.25 4 0.25 7 2.25 C7 2.91 7 3.57 7 4.25 C7.66 4.25 8.32 4.25 9 4.25 C9 4.91 9 5.57 9 6.25 C9.66 6.25 10.32 6.25 11 6.25 C11 6.91 11 7.57 11 8.25 C11.66 8.25 12.32 8.25 13 8.25 C14.296875 9.7890625 14.296875 9.7890625 15.75 11.875 C17.78890218 14.70736657 19.85396297 17.21149535 22.375 19.625 C23.24125 20.49125 24.1075 21.3575 25 22.25 C25 22.91 25 23.57 25 24.25 C25.66 24.25 26.32 24.25 27 24.25 C27 24.91 27 25.57 27 26.25 C27.66 26.25 28.32 26.25 29 26.25 C29 26.91 29 27.57 29 28.25 C29.66 28.25 30.32 28.25 31 28.25 C31 28.91 31 29.57 31 30.25 C31.66 30.25 32.32 30.25 33 30.25 C33.495 32.23 33.495 32.23 34 34.25 C34.99 34.25 35.98 34.25 37 34.25 C37.495 36.23 37.495 36.23 38 38.25 C38.99 38.25 39.98 38.25 41 38.25 C44.14344298 41.05274853 45.2505329 43.33245661 45.50120544 47.43765259 C45.52186053 49.12188264 45.52051989 50.806471 45.50170898 52.49072266 C45.50981346 53.87447334 45.50981346 53.87447334 45.51808167 55.28617859 C45.53056841 58.32913491 45.5140806 61.37114521 45.49609375 64.4140625 C45.49624871 66.52965342 45.49773723 68.64524462 45.50050354 70.76083374 C45.50188742 75.19094416 45.48932893 79.62073076 45.46655273 84.05078125 C45.43813362 89.73511341 45.44091507 95.41890894 45.45364285 101.10328102 C45.46058936 105.46982424 45.45282306 109.83624291 45.44038582 114.20277023 C45.43586377 116.29918312 45.43554107 118.39560935 45.43945122 120.49202347 C45.44235422 123.41765133 45.42590122 126.34253276 45.40405273 129.26806641 C45.40855438 130.13774551 45.41305603 131.00742462 45.41769409 131.90345764 C45.34407458 137.82180031 45.34407458 137.82180031 43.62323093 139.96338463 C42 141.25 42 141.25 39.640625 141.76953125 C35.86847172 141.02737683 34.13042475 138.75447175 31.75 135.9375 C31.27763916 135.39859131 30.80527832 134.85968262 30.31860352 134.30444336 C28.86312211 132.6326297 27.43044093 130.94325548 26 129.25 C25.55446777 128.73276367 25.10893555 128.21552734 24.64990234 127.68261719 C16.86042143 118.6384745 16.86042143 118.6384745 15 113.25 C14.34 113.25 13.68 113.25 13 113.25 C13 112.59 13 111.93 13 111.25 C12.34 111.25 11.68 111.25 11 111.25 C7 105.83823529 7 105.83823529 7 103.25 C6.34 103.25 5.68 103.25 5 103.25 C5 102.59 5 101.93 5 101.25 C4.34 101.25 3.68 101.25 3 101.25 C1.4921875 99.5703125 1.4921875 99.5703125 -0.125 97.375 C-0.66382813 96.65570313 -1.20265625 95.93640625 -1.7578125 95.1953125 C-3 93.25 -3 93.25 -3 91.25 C-3.66 91.25 -4.32 91.25 -5 91.25 C-5 90.59 -5 89.93 -5 89.25 C-5.66 89.25 -6.32 89.25 -7 89.25 C-7 88.26 -7 87.27 -7 86.25 C-8.32 85.59 -9.64 84.93 -11 84.25 C-11 83.26 -11 82.27 -11 81.25 C-11.66 81.25 -12.32 81.25 -13 81.25 C-13 80.59 -13 79.93 -13 79.25 C-13.66 79.25 -14.32 79.25 -15 79.25 C-16.31153763 77.78190495 -17.54994075 76.24804216 -18.75 74.6875 C-21.25763148 71.46144125 -23.78701789 68.30533462 -26.5 65.25 C-29 62.25 -29 62.25 -29 60.25 C-29.66 60.25 -30.32 60.25 -31 60.25 C-32.36176922 58.60648543 -33.68962066 56.93477344 -35 55.25 C-36.64740076 53.5642876 -38.31066078 51.8936814 -40 50.25 C-41 49.25 -41 49.25 -41.09765625 46.74609375 C-41.08605469 45.73675781 -41.07445312 44.72742188 -41.0625 43.6875 C-41.05347656 42.67558594 -41.04445313 41.66367188 -41.03515625 40.62109375 C-41.02355469 39.83863281 -41.01195312 39.05617187 -41 38.25 C-40.34 38.25 -39.68 38.25 -39 38.25 C-38.34 36.93 -37.68 35.61 -37 34.25 C-36.34 34.25 -35.68 34.25 -35 34.25 C-35 33.59 -35 32.93 -35 32.25 C-34.34 32.25 -33.68 32.25 -33 32.25 C-33 31.59 -33 30.93 -33 30.25 C-32.34 30.25 -31.68 30.25 -31 30.25 C-31 29.59 -31 28.93 -31 28.25 C-30.34 28.25 -29.68 28.25 -29 28.25 C-28.76410156 27.69570312 -28.52820313 27.14140625 -28.28515625 26.5703125 C-26.6873545 23.68552758 -24.68148991 21.53827968 -22.4375 19.125 C-19.36280814 15.93492491 -19.36280814 15.93492491 -17 12.25 C-16.34 12.25 -15.68 12.25 -15 12.25 C-15 11.59 -15 10.93 -15 10.25 C-14.34 10.25 -13.68 10.25 -13 10.25 C-13 9.59 -13 8.93 -13 8.25 C-12.34 8.25 -11.68 8.25 -11 8.25 C-10.34 6.93 -9.68 5.61 -9 4.25 C-8.34 4.25 -7.68 4.25 -7 4.25 C-7 3.59 -7 2.93 -7 2.25 C-4.00261059 0.25174039 -3.36652492 -0.02550398 0 0 Z M-11 11.25 C-12.70140782 13.08784147 -14.33124262 14.97059051 -15.953125 16.87890625 C-18.57389302 19.91479592 -21.2805998 22.86501838 -24 25.8125 C-24.51965332 26.37799561 -25.03930664 26.94349121 -25.57470703 27.52612305 C-28.81532168 31.03294203 -32.13118358 34.4069525 -35.6953125 37.58984375 C-37.52999221 39.92439129 -38.17492511 42.42510075 -39 45.25 C-38.25169922 46.07177734 -38.25169922 46.07177734 -37.48828125 46.91015625 C-28.46902913 56.86857646 -19.53317618 66.92061944 -11.2109375 77.47265625 C-8.24233514 81.20176628 -5.21722397 84.88297145 -2.1875 88.5625 C-1.58421875 89.2951709 -0.9809375 90.0278418 -0.359375 90.78271484 C3.81937801 95.84586596 8.05078824 100.86134085 12.30786133 105.85864258 C14.77863245 108.77037675 17.17735437 111.71902982 19.5 114.75 C22.4417966 118.587126 25.50951585 122.30373319 28.625 126 C29.08068359 126.54333984 29.53636719 127.08667969 30.00585938 127.64648438 C32.85460762 131.00792462 35.75487845 134.25961495 39 137.25 C39.66 137.25 40.32 137.25 41 137.25 C41 106.89 41 76.53 41 45.25 C36.82979884 47.03722907 32.74658699 48.80810537 28.671875 50.7734375 C27.22361328 51.46953125 27.22361328 51.46953125 25.74609375 52.1796875 C24.26302734 52.89511719 24.26302734 52.89511719 22.75 53.625 C20.78698561 54.57140694 18.82344501 55.51672323 16.859375 56.4609375 C15.99795898 56.87649902 15.13654297 57.29206055 14.24902344 57.72021484 C9.52212887 59.94584765 4.75634674 62.08802421 0 64.25 C0 44.45 0 24.65 0 4.25 C-4.93189152 4.25 -7.59302053 7.9320088 -11 11.25 Z " fill="#08E8FC" transform="translate(363,83.75)"/>
<path d="M0 0 C47.26958732 0 47.26958732 0 61.6875 13.1875 C70.48890095 22.45967356 73.50355299 33.47758113 73.25 45.94921875 C72.32478059 57.23978683 67.43204099 68.29577728 59 76 C47.13185635 84.89649337 37.45750801 86.44560302 22.9375 86.1875 C18.008125 86.125625 13.07875 86.06375 8 86 C8 101.18 8 116.36 8 132 C5.36 132 2.72 132 0 132 C0 88.44 0 44.88 0 0 Z M8 8 C8 31.1 8 54.2 8 78 C34.21281741 78.9397916 34.21281741 78.9397916 54.9765625 67.18359375 C61.67857728 60.12508882 64.20478327 53.13403031 64.4375 43.4375 C64.09332694 32.73586902 61.37518295 25.83244429 54 18 C40.66308759 5.75671441 25.98226024 8 8 8 Z " fill="#FEFEFE" transform="translate(934,112)"/>
<path d="M0 0 C1.9375 1.8125 1.9375 1.8125 2.9375 4.8125 C2.23592773 5.50963104 1.53435547 6.20676208 0.81152344 6.92501831 C-5.78651379 13.48258284 -12.37931743 20.04536839 -18.96697998 26.61335564 C-22.35425788 29.99017838 -25.74337851 33.36510829 -29.13671875 36.73583984 C-32.40893831 39.9863927 -35.67630535 43.24174978 -38.94030762 46.50055313 C-40.18895423 47.74549286 -41.43936509 48.98866556 -42.69152832 50.23006821 C-44.43962469 51.96373172 -46.18144791 53.70346653 -47.921875 55.44482422 C-48.70733704 56.21950043 -48.70733704 56.21950043 -49.50866699 57.00982666 C-52.25220747 59.44827709 -52.25220747 59.44827709 -53.0625 62.8125 C-51.17057525 63.79919759 -49.27378022 64.7765602 -47.375 65.75 C-46.31925781 66.29527344 -45.26351563 66.84054688 -44.17578125 67.40234375 C-35.89346841 71.1538054 -26.94373378 70.63336389 -18.44921875 67.79296875 C-12.29934168 65.26658717 -7.52445805 61.69276662 -3.0625 56.8125 C-0.0925 57.8025 2.8775 58.7925 5.9375 59.8125 C0.91566912 69.85616177 -8.04157645 75.03653977 -18.41015625 78.625 C-29.46431059 81.513926 -41.78395111 80.49562113 -51.98046875 75.3359375 C-63.28393224 68.50708645 -71.36412731 59.81935492 -75.20703125 46.9921875 C-76.1825738 42.79061299 -76.40943935 38.73995842 -76.375 34.4375 C-76.36936035 33.69363037 -76.3637207 32.94976074 -76.35791016 32.18334961 C-76.09377219 20.17553322 -71.55638701 10.32267084 -63.3125 1.5625 C-44.48071144 -16.09230177 -20.01140929 -14.29386378 0 0 Z M-58.875 10.6875 C-66.7424996 20.21611901 -67.98165133 29.72872389 -67.0625 41.8125 C-65.77364461 46.66250557 -63.83704361 50.65068458 -61.0625 54.8125 C-57.41674362 53.274183 -55.08148804 51.08490769 -52.29394531 48.30273438 C-51.83494339 47.84723709 -51.37594147 47.39173981 -50.9030304 46.92243958 C-49.39383945 45.4220207 -47.89204588 43.91444115 -46.390625 42.40625 C-45.34288275 41.35985523 -44.29484378 40.31375749 -43.246521 39.26794434 C-41.0544715 37.07883957 -38.8660712 34.88616731 -36.68017578 32.69091797 C-33.87344246 29.87276231 -31.05778862 27.06371745 -28.23936844 24.25725555 C-26.0756897 22.10078892 -23.91677872 19.93959999 -21.75930023 17.77693176 C-20.72251075 16.73880545 -19.68422619 15.70217012 -18.64444733 14.66703796 C-17.19596181 13.22360988 -15.75453276 11.77311089 -14.31347656 10.32226562 C-13.07914886 9.08555115 -13.07914886 9.08555115 -11.81988525 7.82385254 C-9.84317864 6.0066409 -9.84317864 6.0066409 -10.0625 3.8125 C-27.36489147 -5.44540297 -45.15693959 -4.16886755 -58.875 10.6875 Z " fill="#FEFEFE" transform="translate(1411.0625,166.1875)"/>
<path d="M0 0 C0 0.66 0 1.32 0 2 C0.5775 2.24105469 1.155 2.48210938 1.75 2.73046875 C4.42944146 4.24230638 5.99612758 5.98378107 8 8.3125 C8.6909375 9.11429688 9.381875 9.91609375 10.09375 10.7421875 C10.7228125 11.48726562 11.351875 12.23234375 12 13 C12.825 13.969375 13.65 14.93875 14.5 15.9375 C16 18 16 18 16 20 C16.66 20 17.32 20 18 20 C19.4375 21.93359375 19.4375 21.93359375 21 24.4375 C22.9529916 27.81006651 22.9529916 27.81006651 26 30 C26 30.99 26 31.98 26 33 C26.66 33 27.32 33 28 33 C28 33.66 28 34.32 28 35 C28.66 35 29.32 35 30 35 C31.9423308 37.21135988 33.76283941 39.42726265 35.5625 41.75 C36.06974609 42.38421875 36.57699219 43.0184375 37.09960938 43.671875 C37.58365234 44.290625 38.06769531 44.909375 38.56640625 45.546875 C39.00927979 46.11245117 39.45215332 46.67802734 39.90844727 47.26074219 C41.09971074 49.15887706 41.57328465 50.811624 42 53 C42.66 53 43.32 53 44 53 C44 53.66 44 54.32 44 55 C44.66 55 45.32 55 46 55 C46 55.66 46 56.32 46 57 C46.66 57 47.32 57 48 57 C49.296875 58.50390625 49.296875 58.50390625 50.75 60.5625 C53.27478083 64.06983101 55.96289404 67.28814972 58.8984375 70.45703125 C60 72 60 72 60 75 C60.66 75 61.32 75 62 75 C62 75.66 62 76.32 62 77 C62.66 77 63.32 77 64 77 C65.4375 78.7578125 65.4375 78.7578125 67 81.125 C67.7734375 82.27355469 67.7734375 82.27355469 68.5625 83.4453125 C72.40610462 90.27606637 72.3353835 96.71236759 72.37109375 104.37109375 C72.38012222 105.56678482 72.3891507 106.76247589 72.39845276 107.99440002 C72.41293441 110.51845808 72.4218368 113.0425535 72.42553711 115.56665039 C72.43744817 119.42072814 72.48667096 123.27321221 72.53710938 127.12695312 C72.54657248 129.58332554 72.55380805 132.03970776 72.55859375 134.49609375 C72.57812607 135.64420029 72.59765839 136.79230682 72.61778259 137.97520447 C72.57837236 144.98640484 71.92224523 148.86496349 67 154 C61.89737374 156.49107246 57.38471875 156.15708744 51.98828125 154.703125 C49.53360339 153.83506603 47.77264439 152.92678738 46 151 C46 150.01 46 149.02 46 148 C44.68 147.34 43.36 146.68 42 146 C42 145.01 42 144.02 42 143 C41.0409375 142.62875 41.0409375 142.62875 40.0625 142.25 C38 141 38 141 37.4375 138.9375 C37.2209375 137.9784375 37.2209375 137.9784375 37 137 C36.01 136.67 35.02 136.34 34 136 C34 135.01 34 134.02 34 133 C33.34 133 32.68 133 32 133 C32 132.34 32 131.68 32 131 C31.34 131 30.68 131 30 131 C29.67 130.01 29.34 129.02 29 128 C27.515 127.01 27.515 127.01 26 126 C26 125.01 26 124.02 26 123 C25.34 123 24.68 123 24 123 C22.4921875 121.3203125 22.4921875 121.3203125 20.875 119.125 C20.33617187 118.40570313 19.79734375 117.68640625 19.2421875 116.9453125 C18 115 18 115 18 113 C17.34 113 16.68 113 16 113 C16 112.34 16 111.68 16 111 C15.34 111 14.68 111 14 111 C12.21694476 108.36107824 11.00940379 106.02821137 10 103 C9.34 103 8.68 103 8 103 C6.58084349 101.2808104 5.24061434 99.4962319 3.9375 97.6875 C0.13255856 92.47528347 -3.83994398 87.44465782 -7.95703125 82.47265625 C-10 80 -10 80 -11.96484375 77.203125 C-13.78297447 74.8063362 -13.78297447 74.8063362 -16.359375 74.51171875 C-17.14828125 74.56972656 -17.9371875 74.62773438 -18.75 74.6875 C-19.94882813 74.75517578 -19.94882813 74.75517578 -21.171875 74.82421875 C-21.77515625 74.88222656 -22.3784375 74.94023438 -23 75 C-23 75.66 -23 76.32 -23 77 C-23.66 77 -24.32 77 -25 77 C-25.226875 77.70125 -25.45375 78.4025 -25.6875 79.125 C-26.83148425 81.63087025 -27.80047192 83.08797332 -29.5625 85.125 C-32.14217763 87.80604196 -32.14217763 87.80604196 -33 91 C-33.66 91 -34.32 91 -35 91 C-35 91.66 -35 92.32 -35 93 C-35.66 93 -36.32 93 -37 93 C-37.2475 93.721875 -37.495 94.44375 -37.75 95.1875 C-39.12269592 98.27606582 -40.72353296 100.51011418 -43 103 C-43.66 103 -44.32 103 -45 103 C-45.28875 103.763125 -45.5775 104.52625 -45.875 105.3125 C-47 108 -47 108 -49 111 C-49.66 111 -50.32 111 -51 111 C-51.495 112.98 -51.495 112.98 -52 115 C-52.66 115 -53.32 115 -54 115 C-54.2578125 115.72574219 -54.515625 116.45148438 -54.78125 117.19921875 C-56.05242499 120.12047667 -57.54016402 122.30872649 -59.5 124.8125 C-60.1084375 125.60269531 -60.716875 126.39289063 -61.34375 127.20703125 C-61.8903125 127.79871094 -62.436875 128.39039063 -63 129 C-63.66 129 -64.32 129 -65 129 C-65.2475 129.70125 -65.495 130.4025 -65.75 131.125 C-67.17180238 134.39514548 -68.87246288 137.141122 -71 140 C-71.66 140 -72.32 140 -73 140 C-73.12375 140.639375 -73.2475 141.27875 -73.375 141.9375 C-73.58125 142.618125 -73.7875 143.29875 -74 144 C-74.66 144.33 -75.32 144.66 -76 145 C-76.33 145.99 -76.66 146.98 -77 148 C-79.1046217 150.02945664 -80.58215671 150.90357462 -83.4375 151.5625 C-86.59359238 150.86969923 -87.95863688 149.44906951 -89.9392395 146.95129395 C-92.02869017 143.10770018 -91.64702647 138.97643844 -91.55859375 134.703125 C-91.55626236 133.71431335 -91.55393097 132.72550171 -91.55152893 131.70672607 C-91.54180893 129.61884921 -91.52006224 127.53099804 -91.48706055 125.44335938 C-91.43787767 122.27433458 -91.42558851 119.10687123 -91.41992188 115.9375 C-91.4058245 113.90102542 -91.38961604 111.86456414 -91.37109375 109.828125 C-91.36573105 108.89236633 -91.36036835 107.95660767 -91.35484314 106.99249268 C-91.20773814 98.70364726 -90.53354004 90.51532556 -86 83.375 C-85.484375 82.53710938 -84.96875 81.69921875 -84.4375 80.8359375 C-83.963125 80.23007813 -83.48875 79.62421875 -83 79 C-82.34 79 -81.68 79 -81 79 C-80.71125 78.236875 -80.4225 77.47375 -80.125 76.6875 C-79 74 -79 74 -77 71 C-76.34 71 -75.68 71 -75 71 C-75 70.34 -75 69.68 -75 69 C-74.34 69 -73.68 69 -73 69 C-72.7525 68.45859375 -72.505 67.9171875 -72.25 67.359375 C-70.72011396 64.4717151 -68.90849003 61.90223982 -67 59.25 C-66.29875 58.26515625 -65.5975 57.2803125 -64.875 56.265625 C-64.25625 55.51796875 -63.6375 54.7703125 -63 54 C-62.34 54 -61.68 54 -61 54 C-60.79375 53.34 -60.5875 52.68 -60.375 52 C-58.50875748 47.92819814 -56.02438473 44.31203002 -53 41 C-52.34 41 -51.68 41 -51 41 C-50.7525 40.443125 -50.505 39.88625 -50.25 39.3125 C-48.77075182 36.57589087 -47.06532561 34.32349131 -45 32 C-44.34 32 -43.68 32 -43 32 C-42.896875 31.360625 -42.79375 30.72125 -42.6875 30.0625 C-42.460625 29.381875 -42.23375 28.70125 -42 28 C-41.01 27.67 -40.02 27.34 -39 27 C-38.855625 26.401875 -38.71125 25.80375 -38.5625 25.1875 C-37.80588481 22.24510759 -36.16146052 21.09788815 -34 19 C-33.505 18.175 -33.01 17.35 -32.5 16.5 C-30.9375675 13.89594583 -29.13713142 12.13713142 -27 10 C-25.76487921 7.86690808 -25.76487921 7.86690808 -25 6 C-24.34 6 -23.68 6 -23 6 C-23 5.34 -23 4.68 -23 4 C-22.34 4 -21.68 4 -21 4 C-21 3.34 -21 2.68 -21 2 C-13.27793698 -2.16490899 -8.46585095 -2.46920653 0 0 Z M-30.82421875 19.39550781 C-32.50631671 21.69092887 -34.27805346 23.9086041 -36.0625 26.125 C-36.70574219 26.92550781 -37.34898437 27.72601563 -38.01171875 28.55078125 C-40.12044058 31.14836197 -42.24742431 33.73034597 -44.375 36.3125 C-48.00992959 40.74140738 -51.51518968 45.25491754 -54.98779297 49.81176758 C-58.40778564 54.27788334 -61.9394588 58.64545604 -65.5 63 C-69.53660359 67.95046223 -73.56495569 72.90570521 -77.5 77.9375 C-78.2528125 78.89527344 -79.005625 79.85304688 -79.78125 80.83984375 C-85.64056504 89.18524141 -87.73895796 94.87111668 -87.5234375 105.18359375 C-87.51873444 106.32031021 -87.51403137 107.45702667 -87.50918579 108.62818909 C-87.48796209 112.23192743 -87.43137373 115.83415893 -87.375 119.4375 C-87.35848093 121.88475179 -87.34413596 124.33201927 -87.33203125 126.77929688 C-87.29814652 131.23383358 -87.26357734 135.68821729 -87.19287109 140.14233398 C-87.18001068 141.03452133 -87.16715027 141.92670868 -87.15390015 142.84593201 C-87.13440525 145.04980242 -87.13440525 145.04980242 -86 147 C-82.49584262 146.75322835 -81.23469668 146.24791903 -78.78125 143.65625 C-77.65203125 142.09390625 -77.65203125 142.09390625 -76.5 140.5 C-75.62025213 139.30565027 -74.74001959 138.11165744 -73.859375 136.91796875 C-73.39595703 136.28036621 -72.93253906 135.64276367 -72.45507812 134.98583984 C-69.94039106 131.5538827 -67.34064535 128.18725411 -64.75 124.8125 C-64.20609619 124.10109863 -63.66219238 123.38969727 -63.10180664 122.65673828 C-54.68868169 111.65411107 -46.20711655 100.70927515 -37.5 89.9375 C-33.7961807 85.35462489 -30.30127986 80.74598258 -27.18359375 75.734375 C-25.91378246 73.87366143 -24.7531564 72.42147817 -23 71 C-17.47531849 70.4653534 -14.61878535 70.73968093 -10 74 C-9.34 74 -8.68 74 -8 74 C-7.73058594 74.58007812 -7.46117187 75.16015625 -7.18359375 75.7578125 C-5.98599093 78.02653864 -4.65859379 79.86915108 -3.0625 81.875 C-2.12470703 83.06029297 -2.12470703 83.06029297 -1.16796875 84.26953125 C-0.45253906 85.17058594 0.26289063 86.07164063 1 87 C2.2539523 88.60593892 3.50788754 90.2118912 4.76147461 91.81811523 C9.2329761 97.53859476 13.77668441 103.19356413 18.375 108.8125 C26.20899062 118.39779722 33.6966923 128.24308618 41.109375 138.15625 C46.98342666 146.9971755 46.98342666 146.9971755 55.3671875 152.80859375 C60.03115043 153.0677028 63.07405649 151.94294827 66.69856262 148.82859802 C69.54354127 144.83123141 68.75849072 139.61591903 68.65625 134.91015625 C68.65063049 133.14423378 68.65063049 133.14423378 68.64489746 131.34263611 C68.63146505 128.8553432 68.60365242 126.36809224 68.5625 123.88110352 C68.50028381 120.07983994 68.480565 116.28023758 68.46875 112.47851562 C68.45040459 110.05987568 68.42965134 107.64125256 68.40625 105.22265625 C68.39775024 104.08812515 68.38925049 102.95359406 68.38049316 101.78468323 C68.10912073 86.75046564 60.06190958 78.06523963 50.6796875 67.140625 C47.79333597 63.77557136 45.03402884 60.31856919 42.28125 56.84375 C39.28882522 53.11346705 36.23613477 49.43437869 33.1875 45.75 C28.87205194 40.52853679 24.60508488 35.27777192 20.4375 29.9375 C19.10519573 28.23655443 17.77226645 26.5361014 16.43896484 24.8359375 C15.41717071 23.53225717 14.39681032 22.22745253 13.37744141 20.921875 C11.67787015 18.75266612 9.96525463 16.59431997 8.25 14.4375 C7.73107178 13.77032959 7.21214355 13.10315918 6.67749023 12.41577148 C2.39387137 7.06516066 -1.88029715 2.55349567 -8.875 1.3125 C-19.33143735 2.1570584 -25.20784043 11.63509936 -30.82421875 19.39550781 Z " fill="#F6FAFC" transform="translate(233,7)"/>
<path d="M0 0 C8.92985806 6.16542135 14.52902434 12.61924797 16.53411865 23.41326904 C17.25171331 28.85519016 17.16061082 34.28950548 17.11328125 39.76953125 C17.11045135 41.02055634 17.10762146 42.27158142 17.10470581 43.56051636 C17.09547043 46.85173439 17.07756993 50.14274836 17.05529785 53.43389893 C17.03466736 56.80616792 17.0256677 60.17846705 17.015625 63.55078125 C16.99367268 70.14200545 16.96027673 76.73309545 16.91796875 83.32421875 C13.94796875 83.32421875 10.97796875 83.32421875 7.91796875 83.32421875 C7.91250031 82.22333923 7.91250031 82.22333923 7.90692139 81.10021973 C7.86892813 74.15644907 7.81194755 67.21306059 7.73406601 60.26963043 C7.69469159 56.70056927 7.66245459 53.13175111 7.64697266 49.5625 C7.63173895 46.11272986 7.59717738 42.66362822 7.54965973 39.2141571 C7.52777784 37.26905513 7.52550079 35.32376418 7.52362061 33.37854004 C7.39123954 25.31803399 6.577463 19.66613616 1.2421875 13.3359375 C-4.90428208 8.36301819 -10.50214157 5.67182916 -18.53515625 5.98828125 C-26.16300952 6.99440913 -31.43539104 10.73074451 -36.38818359 16.49142456 C-39.66974782 21.97951909 -39.17498933 27.98883247 -39.08203125 34.203125 C-39.08956301 35.62518017 -39.10060866 37.04722063 -39.11499023 38.46922302 C-39.143243 42.18347386 -39.12425773 45.89598581 -39.09490967 49.61016846 C-39.07340588 53.41144751 -39.09729509 57.21242395 -39.1171875 61.01367188 C-39.14950668 68.45095305 -39.13184816 75.88698556 -39.08203125 83.32421875 C-41.72203125 83.32421875 -44.36203125 83.32421875 -47.08203125 83.32421875 C-47.08203125 56.26421875 -47.08203125 29.20421875 -47.08203125 1.32421875 C-44.44203125 1.32421875 -41.80203125 1.32421875 -39.08203125 1.32421875 C-38.75203125 2.31421875 -38.42203125 3.30421875 -38.08203125 4.32421875 C-37.57414062 3.98648438 -37.06625 3.64875 -36.54296875 3.30078125 C-35.85460938 2.85476562 -35.16625 2.40875 -34.45703125 1.94921875 C-33.78414062 1.50835937 -33.11125 1.0675 -32.41796875 0.61328125 C-23.39085397 -4.36823694 -9.17913635 -5.06006549 0 0 Z " fill="#FEFEFE" transform="translate(1300.08203125,160.67578125)"/>
<path d="M0 0 C8.92985806 6.16542135 14.52902434 12.61924797 16.53411865 23.41326904 C17.25171331 28.85519016 17.16061082 34.28950548 17.11328125 39.76953125 C17.11045135 41.02055634 17.10762146 42.27158142 17.10470581 43.56051636 C17.09547043 46.85173439 17.07756993 50.14274836 17.05529785 53.43389893 C17.03466736 56.80616792 17.0256677 60.17846705 17.015625 63.55078125 C16.99367268 70.14200545 16.96027673 76.73309545 16.91796875 83.32421875 C13.94796875 83.32421875 10.97796875 83.32421875 7.91796875 83.32421875 C7.91250031 82.22333923 7.91250031 82.22333923 7.90692139 81.10021973 C7.86892813 74.15644907 7.81194755 67.21306059 7.73406601 60.26963043 C7.69469159 56.70056927 7.66245459 53.13175111 7.64697266 49.5625 C7.63173895 46.11272986 7.59717738 42.66362822 7.54965973 39.2141571 C7.52777784 37.26905513 7.52550079 35.32376418 7.52362061 33.37854004 C7.39123954 25.31803399 6.577463 19.66613616 1.2421875 13.3359375 C-4.90428208 8.36301819 -10.50214157 5.67182916 -18.53515625 5.98828125 C-26.16300952 6.99440913 -31.43539104 10.73074451 -36.38818359 16.49142456 C-39.66974782 21.97951909 -39.17498933 27.98883247 -39.08203125 34.203125 C-39.08956301 35.62518017 -39.10060866 37.04722063 -39.11499023 38.46922302 C-39.143243 42.18347386 -39.12425773 45.89598581 -39.09490967 49.61016846 C-39.07340588 53.41144751 -39.09729509 57.21242395 -39.1171875 61.01367188 C-39.14950668 68.45095305 -39.13184816 75.88698556 -39.08203125 83.32421875 C-41.72203125 83.32421875 -44.36203125 83.32421875 -47.08203125 83.32421875 C-47.08203125 56.26421875 -47.08203125 29.20421875 -47.08203125 1.32421875 C-44.44203125 1.32421875 -41.80203125 1.32421875 -39.08203125 1.32421875 C-38.75203125 2.31421875 -38.42203125 3.30421875 -38.08203125 4.32421875 C-37.57414062 3.98648438 -37.06625 3.64875 -36.54296875 3.30078125 C-35.85460938 2.85476562 -35.16625 2.40875 -34.45703125 1.94921875 C-33.78414062 1.50835937 -33.11125 1.0675 -32.41796875 0.61328125 C-23.39085397 -4.36823694 -9.17913635 -5.06006549 0 0 Z " fill="#FEFEFE" transform="translate(1213.08203125,160.67578125)"/>
<path d="M0 0 C0 27.06 0 54.12 0 82 C-4.73642302 80.81589425 -6.27760089 78.75364008 -9.1875 75.125 C-9.91259766 74.24533569 -9.91259766 74.24533569 -10.65234375 73.34790039 C-12.11177271 71.57330198 -13.55797545 69.78875741 -15 68 C-20.25070529 61.50038324 -25.57318233 55.15742002 -31.28320312 49.05834961 C-32.53475723 47.71723517 -33.76806955 46.35916261 -35 45 C-35.64195312 44.34902344 -36.28390625 43.69804687 -36.9453125 43.02734375 C-38 41 -38 41 -37.63671875 38.2109375 C-35.41119653 33.8448772 -32.34928026 30.96522171 -28.8125 27.625 C-27.4383905 26.2908252 -26.06596928 24.95490919 -24.6953125 23.6171875 C-24.04594727 22.98651367 -23.39658203 22.35583984 -22.72753906 21.70605469 C-20.2367711 19.24626292 -17.94936577 16.64876352 -15.6875 13.98046875 C-13.40187759 11.2980369 -11.04864527 8.67825802 -8.6875 6.0625 C-7.84574219 5.12535156 -7.00398438 4.18820313 -6.13671875 3.22265625 C-3.03866432 0 -3.03866432 0 0 0 Z " fill="#057092" transform="translate(362,88)"/>
<path d="M0 0 C2.97 0 5.94 0 9 0 C15.31371109 13.04359929 21.5698252 26.11323583 27.6875 39.25 C28.2040918 40.34940918 28.72068359 41.44881836 29.25292969 42.58154297 C29.96884277 44.12672607 29.96884277 44.12672607 30.69921875 45.703125 C31.12033936 46.60708008 31.54145996 47.51103516 31.9753418 48.44238281 C32.98558323 50.96401475 33.56068679 53.324977 34 56 C34.66 56 35.32 56 36 56 C36.33386719 54.86046875 36.66773438 53.7209375 37.01171875 52.546875 C39.58651342 44.83003285 43.30982133 37.57687838 46.8125 30.25 C47.86963282 28.0265515 48.92530425 25.80241305 49.98092651 23.57824707 C50.66837447 22.13026955 51.35645529 20.6825923 52.04519653 19.23522949 C55.08252379 12.8473802 58.05474183 6.4308663 61 0 C63.97 0 66.94 0 70 0 C69.35084417 4.83840644 67.37319641 8.80370777 65.2734375 13.1484375 C64.89377838 13.94521408 64.51411926 14.74199066 64.12295532 15.56291199 C62.87909878 18.16959238 61.62717687 20.7723076 60.375 23.375 C59.50869406 25.18591543 58.64281247 26.99703391 57.77734375 28.80834961 C51.35487954 42.235692 44.87643662 55.63619186 38.37890625 69.02734375 C31.46019093 83.29141868 24.56468965 97.56876241 18 112 C15.03 112 12.06 112 9 112 C11.3108546 105.82349417 13.96274433 99.93341532 16.92578125 94.05078125 C17.27953827 93.3439621 17.63329529 92.63714294 17.99777222 91.90890503 C19.47479626 88.95994285 20.95340465 86.01226575 22.45922852 83.07788086 C23.56876007 80.91006357 24.65510422 78.73186055 25.73828125 76.55078125 C26.25217155 75.56927849 26.25217155 75.56927849 26.77644348 74.56794739 C29.04160083 69.94271175 29.27193511 66.96321532 28 62 C26.84081748 58.94604991 26.84081748 58.94604991 25.296875 55.95703125 C24.73444092 54.81363281 24.17200684 53.67023438 23.5925293 52.4921875 C23.14192642 51.59258301 23.14192642 51.59258301 22.68222046 50.67480469 C21.08143343 47.47689891 19.51469309 44.26227866 17.94140625 41.05078125 C17.45454094 40.06061508 17.45454094 40.06061508 16.95783997 39.05044556 C13.74715945 32.51332183 10.62330342 25.93705204 7.54528809 19.33651733 C6.70176753 17.53054667 5.85142856 15.72776576 5.00097656 13.92504883 C4.48889648 12.82572021 3.97681641 11.7263916 3.44921875 10.59375 C2.99893311 9.63146484 2.54864746 8.66917969 2.0847168 7.67773438 C1.04345909 5.1072832 0.44066572 2.73144524 0 0 Z " fill="#FEFEFE" transform="translate(789,162)"/>
<path d="M0 0 C3.02981663 1.99330042 5.68957004 4.19747847 8 7 C8 7.99 8 8.98 8 10 C8.59941406 10.26167969 9.19882813 10.52335937 9.81640625 10.79296875 C12.13061764 12.07220188 13.29659445 13.26250442 14.9375 15.3125 C18.09298517 19.1368536 21.52090187 22.57343059 25.08984375 26.015625 C25.82332031 26.73234375 26.55679688 27.4490625 27.3125 28.1875 C28.00988281 28.86167969 28.70726563 29.53585938 29.42578125 30.23046875 C31 32 31 32 31 34 C32.485 34.495 32.485 34.495 34 35 C34 35.99 34 36.98 34 38 C34.66 38 35.32 38 36 38 C37.89179778 41.21032884 38.25242532 43.5816815 38.25878906 47.28759766 C38.26509338 48.34194 38.27139771 49.39628235 38.27789307 50.48257446 C38.2738446 51.61496552 38.26979614 52.74735657 38.265625 53.9140625 C38.26753845 55.08004974 38.2694519 56.24603699 38.27142334 57.44735718 C38.27278375 59.91021948 38.26909736 62.37308899 38.26074219 64.8359375 C38.25002169 68.61735005 38.26065254 72.39828956 38.2734375 76.1796875 C38.27211626 78.57031355 38.2695546 80.96093931 38.265625 83.3515625 C38.26967346 84.48800201 38.27372192 85.62444153 38.27789307 86.7953186 C38.26843658 88.36737564 38.26843658 88.36737564 38.25878906 89.97119141 C38.25719788 90.89622467 38.25560669 91.82125793 38.25396729 92.77432251 C38 95 38 95 36 97 C32.875 97.125 32.875 97.125 30 97 C29.34 95.68 28.68 94.36 28 93 C27.34 93 26.68 93 26 93 C24.44921875 90.98828125 24.44921875 90.98828125 22.6875 88.3125 C18.86509617 82.6781282 18.86509617 82.6781282 14 78 C11.56376878 77.5205095 11.56376878 77.5205095 9 78 C6.90129169 79.59755005 6.90129169 79.59755005 5.125 81.875 C4.444375 82.68582031 3.76375 83.49664062 3.0625 84.33203125 C0.36090353 87.82671002 -2.13612807 91.43357243 -4.5546875 95.12890625 C-5.27011719 96.05509766 -5.27011719 96.05509766 -6 97 C-6.66 97 -7.32 97 -8 97 C-8.28875 97.763125 -8.5775 98.52625 -8.875 99.3125 C-10 102 -10 102 -12 105 C-12.66 105 -13.32 105 -14 105 C-14.2475 105.53625 -14.495 106.0725 -14.75 106.625 C-16.30652537 109.5823982 -18.03435673 112.29724051 -20 115 C-20.66 115 -21.32 115 -22 115 C-22.28875 115.5775 -22.5775 116.155 -22.875 116.75 C-23.91666667 118.83333333 -24.95833333 120.91666667 -26 123 C-26.66 123 -27.32 123 -28 123 C-28.26167969 123.556875 -28.52335937 124.11375 -28.79296875 124.6875 C-31.88944968 130.61991654 -36.03702734 137.704673 -42 141 C-45.08562083 141 -46.39693704 140.5771641 -48.62516785 138.44462585 C-50.56736213 134.99115821 -50.41078717 131.74291424 -50.37231445 127.88598633 C-50.37596512 127.07080536 -50.37961578 126.25562439 -50.38337708 125.41574097 C-50.39148164 122.72095898 -50.37786745 120.02677879 -50.36328125 117.33203125 C-50.36276238 115.45358785 -50.36328112 113.57514391 -50.36479187 111.69670105 C-50.36470213 107.75662137 -50.35427459 103.81674622 -50.33618164 99.87670898 C-50.31357259 94.84431967 -50.31293618 89.81223122 -50.31969929 84.77980518 C-50.32305459 80.89771386 -50.31637858 77.01569014 -50.30657005 73.13361168 C-50.30273876 71.27939903 -50.30156119 69.42517883 -50.3031559 67.57096291 C-50.30353004 64.9674941 -50.29080722 62.36439861 -50.2746582 59.76098633 C-50.27713562 59.00481522 -50.27961304 58.2486441 -50.28216553 57.46955872 C-50.2295232 52.10640184 -49.33670201 47.18862725 -48 42 C-47.34 42 -46.68 42 -46 42 C-45.34 40.68 -44.68 39.36 -44 38 C-43.34 38 -42.68 38 -42 38 C-42 37.34 -42 36.68 -42 36 C-41.34 36 -40.68 36 -40 36 C-39.75894531 35.44183594 -39.51789062 34.88367188 -39.26953125 34.30859375 C-37.73113421 31.51107791 -35.84438036 29.41513085 -33.6875 27.0625 C-32.88570312 26.1859375 -32.08390625 25.309375 -31.2578125 24.40625 C-29.55370269 22.59010529 -27.83879417 20.80688469 -26.0625 19.0625 C-23.84474139 16.97957124 -23.84474139 16.97957124 -22 14 C-21.34 14 -20.68 14 -20 14 C-19.72800781 13.41347656 -19.45601562 12.82695313 -19.17578125 12.22265625 C-15.16587356 4.6424653 -9.05742518 -1.53515681 0 0 Z M-21.23828125 18.6953125 C-25.29917298 23.67157553 -29.80542431 28.25743317 -34.24023438 32.89794922 C-34.89701172 33.58646973 -35.55378906 34.27499023 -36.23046875 34.984375 C-36.81207764 35.58991211 -37.39368652 36.19544922 -37.99291992 36.81933594 C-38.98642456 37.89876465 -38.98642456 37.89876465 -40 39 C-40.48990386 39.47051946 -40.97980772 39.94103891 -41.48455715 40.42581654 C-45.30493821 44.35647658 -46.68755505 47.09981322 -46.746521 52.5824585 C-46.72494934 53.39885803 -46.70337769 54.21525757 -46.68115234 55.05639648 C-46.6820285 55.93524002 -46.68290466 56.81408356 -46.68380737 57.71955872 C-46.67965032 60.60433002 -46.63308909 63.48673227 -46.5859375 66.37109375 C-46.57473863 68.37889842 -46.56620171 70.38671955 -46.56021118 72.39454651 C-46.53736737 77.66390726 -46.47848214 82.93226632 -46.4119873 88.20123291 C-46.35046893 93.58388724 -46.32317576 98.96670438 -46.29296875 104.34960938 C-46.22873486 114.90017826 -46.12640903 125.45000564 -46 136 C-42.12755047 136.42435549 -42.12755047 136.42435549 -40.2109375 134.5234375 C-35.77565672 129.33321531 -31.76094036 123.95428352 -27.85083008 118.36669922 C-24.33855577 113.37968362 -20.52041599 108.71883031 -16.57421875 104.06640625 C-13.76769461 100.74764013 -11.06154115 97.35378199 -8.375 93.9375 C-7.91552979 93.35323242 -7.45605957 92.76896484 -6.98266602 92.16699219 C-3.39937585 87.57720303 0.00989076 82.8841395 3.34375 78.109375 C5.56657262 75.27842166 7.2242414 74.10343448 10.8125 73.625 C14.90749627 74.10676427 16.8313705 75.3824365 20 78 C21.40568804 79.94982535 22.7295036 81.95950578 24 84 C25.16718937 85.61900461 26.35611118 87.22248963 27.5625 88.8125 C28.14128906 89.58207031 28.72007813 90.35164063 29.31640625 91.14453125 C30.95801587 93.2582686 30.95801587 93.2582686 34 94 C34.17805392 86.7412601 34.3003105 79.48308679 34.38452148 72.22265625 C34.41963971 69.75499426 34.46734647 67.28747705 34.52807617 64.8203125 C34.61336874 61.26526111 34.65277691 57.71214082 34.68359375 54.15625 C34.71972275 53.06010376 34.75585175 51.96395752 34.79307556 50.83459473 C34.79592686 45.22345252 34.4215888 41.79525681 30.67163086 37.47216797 C29.46667102 36.29509676 28.24292259 35.13691173 27 34 C25.84757876 32.77158001 24.70303628 31.53566878 23.5703125 30.2890625 C22.4229399 29.06670788 21.27448463 27.84536871 20.125 26.625 C16.01718915 22.24704614 11.93802841 17.85130314 7.9375 13.375 C7.23882812 12.6015625 6.54015625 11.828125 5.8203125 11.03125 C4.71410544 9.79685586 3.62147705 8.5498646 2.5546875 7.28125 C0.53947654 4.9998791 -0.84845724 4.0404114 -3.8125 3.25 C-11.65986304 5.09643836 -16.46432285 12.67995829 -21.23828125 18.6953125 Z " fill="#F9FBFB" transform="translate(89,84)"/>
<path d="M0 0 C4.38059539 2.57390915 7.27485156 5.49501563 9.57421875 10.09375 C10.32421875 13.96875 10.32421875 13.96875 10.57421875 17.09375 C4.82421875 20.09375 4.82421875 20.09375 2.57421875 20.09375 C2.39246094 19.55105469 2.21070313 19.00835937 2.0234375 18.44921875 C1.77207031 17.73378906 1.52070312 17.01835937 1.26171875 16.28125 C1.01808594 15.57355469 0.77445313 14.86585938 0.5234375 14.13671875 C-0.52024448 11.89044025 -1.5032038 10.6458796 -3.42578125 9.09375 C-7.36748761 8.05254455 -9.76447896 7.89027237 -13.67578125 9.09375 C-17.31189565 11.73819684 -18.27191141 13.76673812 -19.42578125 18.09375 C-19.14887347 21.97045899 -18.40774551 24.11818985 -15.62890625 26.87890625 C-11.7571803 30.00237311 -7.65594859 32.59245852 -3.36328125 35.09375 C3.24647379 38.97942248 9.78654735 43.41707399 12.94921875 50.66015625 C14.65905684 57.31783829 14.86139927 65.1481089 12.07421875 71.53125 C8.55425093 77.35610779 3.08458941 82.07591582 -3.42578125 84.09375 C-11.26186333 84.89889105 -19.04500702 85.21835392 -25.42578125 80.09375 C-30.45094495 75.30835554 -34.28104951 70.92914105 -34.55078125 63.78125 C-34.50953125 62.894375 -34.46828125 62.0075 -34.42578125 61.09375 C-31.78578125 60.43375 -29.14578125 59.77375 -26.42578125 59.09375 C-26.19503906 59.84140625 -25.96429687 60.5890625 -25.7265625 61.359375 C-23.32412415 68.98552716 -23.32412415 68.98552716 -17.42578125 74.09375 C-12.39719926 75.769944 -8.08547714 75.70017735 -3.17578125 73.90625 C0.80983029 71.27936967 3.06402406 68.62433408 4.57421875 64.09375 C5.13645211 58.56512193 4.76318012 54.8018269 1.5859375 50.16796875 C-2.50886185 45.94595233 -7.76259029 43.12543628 -12.77099609 40.11035156 C-19.58045144 35.92702727 -26.22882833 31.14924404 -28.42578125 23.09375 C-29.24943409 16.59188438 -28.29371866 11.44589595 -24.42578125 6.09375 C-17.80515322 -0.82781566 -9.37965086 -3.50415298 0 0 Z " fill="#FEFEFE" transform="translate(1517.42578125,160.90625)"/>
<path d="M0 0 C0.680625 -0.00515625 1.36125 -0.0103125 2.0625 -0.015625 C4 0.25 4 0.25 7 2.25 C7 2.91 7 3.57 7 4.25 C7.66 4.25 8.32 4.25 9 4.25 C9 4.91 9 5.57 9 6.25 C9.66 6.25 10.32 6.25 11 6.25 C11 6.91 11 7.57 11 8.25 C11.66 8.25 12.32 8.25 13 8.25 C14.296875 9.7890625 14.296875 9.7890625 15.75 11.875 C17.78890218 14.70736657 19.85396297 17.21149535 22.375 19.625 C23.24125 20.49125 24.1075 21.3575 25 22.25 C25 22.91 25 23.57 25 24.25 C25.66 24.25 26.32 24.25 27 24.25 C27 24.91 27 25.57 27 26.25 C27.66 26.25 28.32 26.25 29 26.25 C29 26.91 29 27.57 29 28.25 C29.66 28.25 30.32 28.25 31 28.25 C31 28.91 31 29.57 31 30.25 C31.66 30.25 32.32 30.25 33 30.25 C33.495 32.23 33.495 32.23 34 34.25 C34.99 34.25 35.98 34.25 37 34.25 C37.495 36.23 37.495 36.23 38 38.25 C38.99 38.25 39.98 38.25 41 38.25 C44.14344298 41.05274853 45.2505329 43.33245661 45.50120544 47.43765259 C45.52186053 49.12188264 45.52051989 50.806471 45.50170898 52.49072266 C45.50981346 53.87447334 45.50981346 53.87447334 45.51808167 55.28617859 C45.53056841 58.32913491 45.5140806 61.37114521 45.49609375 64.4140625 C45.49624871 66.52965342 45.49773723 68.64524462 45.50050354 70.76083374 C45.50188742 75.19094416 45.48932893 79.62073076 45.46655273 84.05078125 C45.43813362 89.73511341 45.44091507 95.41890894 45.45364285 101.10328102 C45.46058936 105.46982424 45.45282306 109.83624291 45.44038582 114.20277023 C45.43586377 116.29918312 45.43554107 118.39560935 45.43945122 120.49202347 C45.44235422 123.41765133 45.42590122 126.34253276 45.40405273 129.26806641 C45.40855438 130.13774551 45.41305603 131.00742462 45.41769409 131.90345764 C45.34407458 137.82180031 45.34407458 137.82180031 43.62323093 139.96338463 C42 141.25 42 141.25 39.640625 141.76953125 C35.86847172 141.02737683 34.13042475 138.75447175 31.75 135.9375 C31.27763916 135.39859131 30.80527832 134.85968262 30.31860352 134.30444336 C28.86312211 132.6326297 27.43044093 130.94325548 26 129.25 C25.55446777 128.73276367 25.10893555 128.21552734 24.64990234 127.68261719 C16.86042143 118.6384745 16.86042143 118.6384745 15 113.25 C14.34 113.25 13.68 113.25 13 113.25 C13 112.59 13 111.93 13 111.25 C12.34 111.25 11.68 111.25 11 111.25 C7 105.83823529 7 105.83823529 7 103.25 C6.34 103.25 5.68 103.25 5 103.25 C5 102.59 5 101.93 5 101.25 C4.34 101.25 3.68 101.25 3 101.25 C1.4921875 99.5703125 1.4921875 99.5703125 -0.125 97.375 C-0.66382813 96.65570313 -1.20265625 95.93640625 -1.7578125 95.1953125 C-3 93.25 -3 93.25 -3 91.25 C-3.66 91.25 -4.32 91.25 -5 91.25 C-5 90.59 -5 89.93 -5 89.25 C-5.66 89.25 -6.32 89.25 -7 89.25 C-7 88.26 -7 87.27 -7 86.25 C-8.32 85.59 -9.64 84.93 -11 84.25 C-11 83.26 -11 82.27 -11 81.25 C-11.66 81.25 -12.32 81.25 -13 81.25 C-13 80.59 -13 79.93 -13 79.25 C-13.66 79.25 -14.32 79.25 -15 79.25 C-16.31153763 77.78190495 -17.54994075 76.24804216 -18.75 74.6875 C-21.25763148 71.46144125 -23.78701789 68.30533462 -26.5 65.25 C-29 62.25 -29 62.25 -29 60.25 C-29.66 60.25 -30.32 60.25 -31 60.25 C-32.36176922 58.60648543 -33.68962066 56.93477344 -35 55.25 C-36.64740076 53.5642876 -38.31066078 51.8936814 -40 50.25 C-41 49.25 -41 49.25 -41.09765625 46.74609375 C-41.08605469 45.73675781 -41.07445312 44.72742188 -41.0625 43.6875 C-41.05347656 42.67558594 -41.04445313 41.66367188 -41.03515625 40.62109375 C-41.02355469 39.83863281 -41.01195312 39.05617187 -41 38.25 C-40.34 38.25 -39.68 38.25 -39 38.25 C-38.34 36.93 -37.68 35.61 -37 34.25 C-36.34 34.25 -35.68 34.25 -35 34.25 C-35 33.59 -35 32.93 -35 32.25 C-34.34 32.25 -33.68 32.25 -33 32.25 C-33 31.59 -33 30.93 -33 30.25 C-32.34 30.25 -31.68 30.25 -31 30.25 C-31 29.59 -31 28.93 -31 28.25 C-30.34 28.25 -29.68 28.25 -29 28.25 C-28.76410156 27.69570312 -28.52820313 27.14140625 -28.28515625 26.5703125 C-26.6873545 23.68552758 -24.68148991 21.53827968 -22.4375 19.125 C-19.36280814 15.93492491 -19.36280814 15.93492491 -17 12.25 C-16.34 12.25 -15.68 12.25 -15 12.25 C-15 11.59 -15 10.93 -15 10.25 C-14.34 10.25 -13.68 10.25 -13 10.25 C-13 9.59 -13 8.93 -13 8.25 C-12.34 8.25 -11.68 8.25 -11 8.25 C-10.34 6.93 -9.68 5.61 -9 4.25 C-8.34 4.25 -7.68 4.25 -7 4.25 C-7 3.59 -7 2.93 -7 2.25 C-4.00261059 0.25174039 -3.36652492 -0.02550398 0 0 Z M-11 11.25 C-12.71362487 13.09993594 -14.35762156 14.9907203 -15.98828125 16.9140625 C-18.59473786 19.94058882 -21.29160129 22.87725677 -24 25.8125 C-24.51973389 26.37807617 -25.03946777 26.94365234 -25.57495117 27.52636719 C-28.81546622 31.03312053 -32.13127081 34.4070304 -35.6953125 37.58984375 C-37.52999221 39.92439129 -38.17492511 42.42510075 -39 45.25 C-38.25169922 46.07177734 -38.25169922 46.07177734 -37.48828125 46.91015625 C-28.46902913 56.86857646 -19.53317618 66.92061944 -11.2109375 77.47265625 C-8.24233514 81.20176628 -5.21722397 84.88297145 -2.1875 88.5625 C-1.58421875 89.2951709 -0.9809375 90.0278418 -0.359375 90.78271484 C3.81937801 95.84586596 8.05078824 100.86134085 12.30786133 105.85864258 C14.77863245 108.77037675 17.17735437 111.71902982 19.5 114.75 C22.4417966 118.587126 25.50951585 122.30373319 28.625 126 C29.08068359 126.54333984 29.53636719 127.08667969 30.00585938 127.64648438 C32.85460762 131.00792462 35.75487845 134.25961495 39 137.25 C39.66 137.25 40.32 137.25 41 137.25 C41.16241155 125.39306237 41.28668178 113.53639069 41.3626852 101.67856598 C41.39916921 96.17202885 41.4486318 90.66625444 41.52807617 85.16015625 C41.60430754 79.84328246 41.64602663 74.52714081 41.6641407 69.20976257 C41.67704404 67.18434629 41.70224227 65.15896871 41.7401104 63.13386536 C42.5135058 50.84656169 42.5135058 50.84656169 37.63500977 40.125 C35.83240906 38.54857269 35.83240906 38.54857269 34 37.25 C33.03761314 36.29562371 32.08865376 35.32743989 31.15625 34.34375 C30.2796875 33.4878125 29.403125 32.631875 28.5 31.75 C24.82586562 28.12502 21.31332791 24.42474975 17.9609375 20.5 C15.26216855 17.40340455 12.47595978 14.39077763 9.6875 11.375 C9.15906494 10.80281738 8.63062988 10.23063477 8.08618164 9.64111328 C6.08567378 7.48006086 4.08252859 5.33252859 2 3.25 C-4.10832087 3.25 -6.8112239 7.09708671 -11 11.25 Z " fill="#F4F9FA" transform="translate(363,83.75)"/>
<path d="M0 0 C4.68306204 1.17076551 5.98888238 2.64486208 9.3125 6.0625 C10.04859497 6.81611816 10.04859497 6.81611816 10.79956055 7.58496094 C13.94946996 10.83400245 16.96612052 14.17205649 19.90234375 17.61328125 C22.98681908 21.12280532 26.1833688 24.52552188 29.375 27.9375 C30.00704346 28.61329102 30.63908691 29.28908203 31.2902832 29.98535156 C34.11260893 33.02398799 34.11260893 33.02398799 37 36 C37.04080783 37.99958364 37.04254356 40.00045254 37 42 C28.43620732 46.57866143 19.85729967 51.12458708 11.1875 55.5 C10.52492188 55.83773437 9.86234375 56.17546875 9.1796875 56.5234375 C6.08689326 58.07303627 3.38108486 59.15472878 0 60 C0 40.2 0 20.4 0 0 Z " fill="#08E5F9" transform="translate(85,88)"/>
<path d="M0 0 C2.64 0 5.28 0 8 0 C8 43.56 8 87.12 8 132 C5.36 132 2.72 132 0 132 C0 88.44 0 44.88 0 0 Z " fill="#FEFEFE" transform="translate(1023,112)"/>
<path d="M0 0 C2.64 0 5.28 0 8 0 C8 43.56 8 87.12 8 132 C5.36 132 2.72 132 0 132 C0 88.44 0 44.88 0 0 Z " fill="#FEFEFE" transform="translate(763,112)"/>
<path d="M0 0 C0.33 0 0.66 0 1 0 C1 17.16 1 34.32 1 52 C-3.38917632 49.80541184 -4.64052338 48.1187791 -7.4375 44.1875 C-12.2865158 37.10764584 -12.2865158 37.10764584 -19 32 C-22.43181466 31.61868726 -24.40412977 31.66386808 -27.4375 33.375 C-30.49993327 36.51212676 -32.84282561 39.909685 -35.25390625 43.5625 C-36.98362866 45.97714606 -38.84519271 47.96307057 -41 50 C-41 48.68 -41 47.36 -41 46 C-40.34 46 -39.68 46 -39 46 C-39 44.35 -39 42.7 -39 41 C-38.67 41 -38.34 41 -38 41 C-37.67 34.73 -37.34 28.46 -37 22 C-33.6278125 20.329375 -33.6278125 20.329375 -30.1875 18.625 C-22.76017199 14.93448998 -15.42255141 11.08570849 -8.12182617 7.15087891 C-7.35201416 6.74015137 -6.58220215 6.32942383 -5.7890625 5.90625 C-5.10537598 5.53822266 -4.42168945 5.17019531 -3.71728516 4.79101562 C-2 4 -2 4 0 4 C0 2.68 0 1.36 0 0 Z " fill="#119AB4" transform="translate(122,126)"/>
<path d="M0 0 C0 2.97 0 5.94 0 9 C-0.6290625 9.1959375 -1.258125 9.391875 -1.90625 9.59375 C-9.9053309 12.38860959 -15.3653035 16.32046443 -19.5703125 23.7890625 C-22.39303964 29.77324403 -24.0772587 35.14927235 -24.20532227 41.7902832 C-24.22526749 42.71086014 -24.24521271 43.63143707 -24.26576233 44.57991028 C-24.29083107 46.05049141 -24.29083107 46.05049141 -24.31640625 47.55078125 C-24.33718735 48.56472458 -24.35796844 49.57866791 -24.37937927 50.62333679 C-24.44461114 53.85299085 -24.50363702 57.08272421 -24.5625 60.3125 C-24.60571029 62.50586748 -24.64932538 64.69922703 -24.69335938 66.89257812 C-24.80026544 72.26163562 -24.90208021 77.6307715 -25 83 C-27.64 83 -30.28 83 -33 83 C-33 55.94 -33 28.88 -33 1 C-30.36 1 -27.72 1 -25 1 C-24.67 4.96 -24.34 8.92 -24 13 C-22.88625 11.783125 -21.7725 10.56625 -20.625 9.3125 C-15.0403107 3.73771263 -8.24394993 -1.08473025 0 0 Z " fill="#FEFEFE" transform="translate(1469,161)"/>
<path d="M0 0 C1.4540625 0.0309375 1.4540625 0.0309375 2.9375 0.0625 C2.9375 1.3825 2.9375 2.7025 2.9375 4.0625 C4.2575 4.7225 5.5775 5.3825 6.9375 6.0625 C6.9375 6.7225 6.9375 7.3825 6.9375 8.0625 C7.5975 8.0625 8.2575 8.0625 8.9375 8.0625 C12.9375 12.41544118 12.9375 12.41544118 12.9375 16.0625 C13.5975 16.0625 14.2575 16.0625 14.9375 16.0625 C14.9375 16.7225 14.9375 17.3825 14.9375 18.0625 C15.5975 18.0625 16.2575 18.0625 16.9375 18.0625 C16.9375 18.7225 16.9375 19.3825 16.9375 20.0625 C17.5975 20.0625 18.2575 20.0625 18.9375 20.0625 C19.11692163 24.00977588 19.03100689 26.6605513 16.9375 30.0625 C16.2775 30.0625 15.6175 30.0625 14.9375 30.0625 C14.69 30.59875 14.4425 31.135 14.1875 31.6875 C12.63097463 34.6448982 10.90314327 37.35974051 8.9375 40.0625 C8.2775 40.0625 7.6175 40.0625 6.9375 40.0625 C6.7828125 40.92875 6.7828125 40.92875 6.625 41.8125 C5.82853535 44.41911158 4.74684723 46.0360311 2.9375 48.0625 C2.2775 48.0625 1.6175 48.0625 0.9375 48.0625 C0.9375 48.7225 0.9375 49.3825 0.9375 50.0625 C0.2775 50.0625 -0.3825 50.0625 -1.0625 50.0625 C-1.0625 50.7225 -1.0625 51.3825 -1.0625 52.0625 C-2.7125 51.7325 -4.3625 51.4025 -6.0625 51.0625 C-6.1120439 44.90609909 -6.14828791 38.74981501 -6.17236328 32.59326172 C-6.182403 30.50014219 -6.19603753 28.40703662 -6.21337891 26.31396484 C-6.23771632 23.30042061 -6.24900357 20.2870623 -6.2578125 17.2734375 C-6.26813507 16.34195892 -6.27845764 15.41048035 -6.28909302 14.45077515 C-6.28992672 9.59159689 -6.02936993 5.60248568 -4.0625 1.0625 C-3.0625 0.0625 -3.0625 0.0625 0 0 Z " fill="#FDFDFD" transform="translate(102.0625,172.9375)"/>
<path d="M0 0 C2.97 0 5.94 0 9 0 C9 27.06 9 54.12 9 82 C6.03 82 3.06 82 0 82 C0 54.94 0 27.88 0 0 Z " fill="#FFFFFF" transform="translate(729,162)"/>
<path d="M0 0 C4.42957746 -0.35915493 4.42957746 -0.35915493 6.6875 1.0625 C8.57113816 3.84310871 9.2061186 6.7634066 10 10 C10.763125 10.12375 11.52625 10.2475 12.3125 10.375 C15 11 15 11 18 13 C18.1875 16.125 18.1875 16.125 18 19 C12.25 22 12.25 22 10 22 C10 22.66 10 23.32 10 24 C9.34 24 8.68 24 8 24 C7.7834375 25.7015625 7.7834375 25.7015625 7.5625 27.4375 C7 31 7 31 6 32 C4.00041636 32.04080783 1.99954746 32.04254356 0 32 C-0.25394531 31.45730469 -0.50789063 30.91460937 -0.76953125 30.35546875 C-1.11371094 29.64003906 -1.45789063 28.92460938 -1.8125 28.1875 C-2.14894531 27.47980469 -2.48539062 26.77210937 -2.83203125 26.04296875 C-5.38697524 21.57395301 -8.10316764 20.41464046 -13 19 C-13.265625 16.67578125 -13.265625 16.67578125 -13 14 C-11.171875 12.48046875 -11.171875 12.48046875 -8.75 11.1875 C-3.73302634 8.16151431 -2.13755886 5.39036583 0 0 Z " fill="#F9FDFE" transform="translate(323,9)"/>
<path d="M0 0 C1.39759972 2.79519945 0.67035972 4.41748008 0.08837891 7.47924805 C-1.31835465 16.10274778 -1.35368744 24.61815531 -1.4140625 33.33203125 C-1.43281673 35.06223937 -1.45239314 36.79243875 -1.4727478 38.52262878 C-1.52362627 43.03185831 -1.56348611 47.54111735 -1.60089111 52.05047607 C-1.64121173 56.66978996 -1.69217463 61.28898581 -1.7421875 65.90820312 C-1.8384209 74.93871864 -1.92299036 83.96930149 -2 93 C-1.01 93.33 -0.02 93.66 1 94 C-0.98 94.99 -0.98 94.99 -3 96 C-5.06119508 93.93880492 -4.16780988 89.5418713 -4.17700195 86.70410156 C-4.18357315 85.83416565 -4.19014435 84.96422974 -4.19691467 84.06793213 C-4.21670061 81.17549565 -4.22832283 78.28311124 -4.23828125 75.390625 C-4.24235678 74.40485222 -4.2464323 73.41907944 -4.25063133 72.40343475 C-4.27151603 67.18464871 -4.28580655 61.96588915 -4.29516602 56.74707031 C-4.30622727 51.35201839 -4.34061713 45.9573793 -4.38033772 40.5624733 C-4.40646955 36.4189171 -4.41485487 32.27545967 -4.41844749 28.13182831 C-4.42332342 26.14309658 -4.43496589 24.15436955 -4.45348549 22.16571808 C-4.47780082 19.38130438 -4.47692569 16.59796365 -4.4699707 13.81347656 C-4.48278076 12.99145752 -4.49559082 12.16943848 -4.50878906 11.32250977 C-4.46284005 6.2755158 -3.7486839 3.70784364 0 0 Z " fill="#5B96AC" transform="translate(47,125)"/>
<path d="M0 0 C0.66 0 1.32 0 2 0 C2.5775 0.9075 3.155 1.815 3.75 2.75 C6.15556631 6.22470689 8.47776229 7.758576 12 10 C12 10.66 12 11.32 12 12 C11.113125 12.350625 10.22625 12.70125 9.3125 13.0625 C5.130793 15.5084041 3.59544888 17.95415321 1 22 C0.505 21.278125 0.01 20.55625 -0.5 19.8125 C-3.21657189 16.75635662 -5.85890394 15.09181841 -9.390625 13.11328125 C-9.92171875 12.74589844 -10.4528125 12.37851562 -11 12 C-11 11.34 -11 10.68 -11 10 C-9.35546875 8.88671875 -9.35546875 8.88671875 -7.1875 7.6875 C-3.6159883 5.57104862 -1.92315978 3.73947734 0 0 Z " fill="#29DFF8" transform="translate(325,14)"/>
<path d="M0 0 C2.4375 1.5 2.4375 1.5 4 4 C4.61014545 6.8089715 4.65360928 9.19636021 4 12 C1.9375 14.5625 1.9375 14.5625 -1 16 C-4.46758942 15.94021398 -6.88826749 15.60965977 -9.9375 13.9375 C-11.69366901 10.73507415 -11.62026592 7.50309274 -11 4 C-8.16250305 -0.53999512 -5.10870514 -0.72981502 0 0 Z " fill="#FEFEFE" transform="translate(737,134)"/>
<path d="M0 0 C0.33 0 0.66 0 1 0 C1.01030746 0.62196259 1.02061493 1.24392517 1.03123474 1.88473511 C1.13916535 8.34074709 1.25377404 14.79661569 1.37231445 21.25244141 C1.4157065 23.66386931 1.45737837 26.07532879 1.49731445 28.48681641 C1.55491369 31.94703706 1.61863779 35.40709812 1.68359375 38.8671875 C1.70030624 39.95055389 1.71701874 41.03392029 1.73423767 42.15011597 C1.75418289 43.1510025 1.77412811 44.15188904 1.79467773 45.18310547 C1.81799416 46.50881058 1.81799416 46.50881058 1.84178162 47.86129761 C1.86765001 50.0519722 1.86765001 50.0519722 3 52 C3.66 52 4.32 52 5 52 C5 51.34 5 50.68 5 50 C5.99 50.33 6.98 50.66 8 51 C6.25 53.5 6.25 53.5 4 56 C2.68 56 1.36 56 0 56 C-1.24737486 53.50525029 -1.12696326 51.82222396 -1.12939453 49.03125 C-1.13254669 47.99677734 -1.13569885 46.96230469 -1.13894653 45.89648438 C-1.1369223 44.77564453 -1.13489807 43.65480469 -1.1328125 42.5 C-1.13376923 41.35337891 -1.13472595 40.20675781 -1.13571167 39.02539062 C-1.13639311 36.59765569 -1.13454135 34.16991895 -1.13037109 31.7421875 C-1.12502237 28.01558357 -1.13031735 24.28910016 -1.13671875 20.5625 C-1.13605796 18.20833307 -1.13477679 15.85416621 -1.1328125 13.5 C-1.13483673 12.37916016 -1.13686096 11.25832031 -1.13894653 10.10351562 C-1.13579437 9.06904297 -1.13264221 8.03457031 -1.12939453 6.96875 C-1.12859894 6.05544922 -1.12780334 5.14214844 -1.12698364 4.20117188 C-1 2 -1 2 0 0 Z " fill="#5593AA" transform="translate(147,98)"/>
<path d="M0 0 C0.33 0 0.66 0 1 0 C1 30.36 1 60.72 1 92 C-4 90 -4 90 -5.3125 87.875 C-5.539375 87.25625 -5.76625 86.6375 -6 86 C-5.34 86 -4.68 86 -4 86 C-4 86.66 -4 87.32 -4 88 C-3.01 88 -2.02 88 -1 88 C-0.67 58.96 -0.34 29.92 0 0 Z " fill="#21A5B4" transform="translate(403,129)"/>
<path d="M0 0 C0.640625 1.83984375 0.640625 1.83984375 1 4 C-1.1372348 6.43407296 -3.39026334 8.49188612 -5.875 10.5625 C-6.24625 11.036875 -6.6175 11.51125 -7 12 C-6.81446109 13.99427359 -6.81446109 13.99427359 -6 16 C-5.66666667 17.33333333 -5.33333333 18.66666667 -5 20 C-4.01 20 -3.02 20 -2 20 C-1.67 21.32 -1.34 22.64 -1 24 C-0.34 24 0.32 24 1 24 C0.67 24.99 0.34 25.98 0 27 C-1.46761013 25.61392377 -2.92374189 24.21568805 -4.375 22.8125 C-5.18710937 22.03519531 -5.99921875 21.25789063 -6.8359375 20.45703125 C-9.02033029 17.97691742 -10.1678394 16.18733211 -11 13 C-8.3910002 7.78200041 -4.19723927 3.98501931 0 0 Z " fill="#4989A4" transform="translate(335,114)"/>
<path d="M0 0 C0.33 0 0.66 0 1 0 C1.07586651 7.65374424 1.12852217 15.30739207 1.16479492 22.96142578 C1.17991108 25.56693139 1.20040432 28.17241144 1.22631836 30.77783203 C1.26257688 34.51601456 1.27969798 38.25386165 1.29296875 41.9921875 C1.30845261 43.16304901 1.32393646 44.33391052 1.33988953 45.54025269 C1.34011612 46.62122223 1.34034271 47.70219177 1.34057617 48.81591797 C1.34723801 49.77078094 1.35389984 50.72564392 1.36076355 51.70944214 C1.24171158 52.46532623 1.12265961 53.22121033 1 54 C0.01 54.66 -0.98 55.32 -2 56 C-2 54.68 -2 53.36 -2 52 C-1.34 52 -0.68 52 0 52 C0 34.84 0 17.68 0 0 Z " fill="#2DDCEE" transform="translate(300,100)"/>
<path d="M0 0 C0 0.66 0 1.32 0 2 C-1.2065625 2.37125 -1.2065625 2.37125 -2.4375 2.75 C-3.283125 3.1625 -4.12875 3.575 -5 4 C-5.14824219 4.61746094 -5.29648438 5.23492187 -5.44921875 5.87109375 C-6.1499625 8.5796423 -7.26255992 9.51648027 -9.375 11.3125 C-9.98085937 11.84488281 -10.58671875 12.37726563 -11.2109375 12.92578125 C-11.80132812 13.28027344 -12.39171875 13.63476562 -13 14 C-13.99 13.67 -14.98 13.34 -16 13 C-14.21188257 11.01752198 -12.41974481 9.03896272 -10.625 7.0625 C-10.11710937 6.49853516 -9.60921875 5.93457031 -9.0859375 5.35351562 C-4.21327657 0 -4.21327657 0 0 0 Z " fill="#3A869D" transform="translate(85,88)"/>
<path d="M0 0 C0.515625 0.2475 1.03125 0.495 1.5625 0.75 C0.77875 0.8325 -0.005 0.915 -0.8125 1 C-1.67875 1.2475 -2.545 1.495 -3.4375 1.75 C-4.10875248 3.08103055 -4.77465102 4.41476465 -5.4375 5.75 C-7.3125 7.671875 -7.3125 7.671875 -9.4375 9.5 C-10.489375 10.42039062 -10.489375 10.42039062 -11.5625 11.359375 C-13.4375 12.75 -13.4375 12.75 -15.4375 12.75 C-12.75947034 6.72443325 -7.42623722 -0.76166536 0 0 Z " fill="#3585A0" transform="translate(222.4375,9.25)"/>
<path d="M0 0 C0.33 0 0.66 0 1 0 C1.33 10.89 1.66 21.78 2 33 C0.02 32.01 -1.96 31.02 -4 30 C-6.2720581 29.44951988 -6.2720581 29.44951988 -8.375 29.3125 C-9.57125 29.209375 -10.7675 29.10625 -12 29 C-12 28.67 -12 28.34 -12 28 C-8.04 28 -4.08 28 0 28 C0 18.76 0 9.52 0 0 Z " fill="#2184A7" transform="translate(222,48)"/>
<path d="M0 0 C0.33 0.99 0.66 1.98 1 3 C-2.37831649 8.77583142 -6.50108874 12.27493108 -12 16 C-12.66 15.67 -13.32 15.34 -14 15 C-12.98679688 14.00419922 -12.98679688 14.00419922 -11.953125 12.98828125 C-11.06109375 12.10527344 -10.1690625 11.22226563 -9.25 10.3125 C-8.36828125 9.44238281 -7.4865625 8.57226562 -6.578125 7.67578125 C-4.21194702 5.21997532 -2.08107444 2.69858952 0 0 Z " fill="#4586A2" transform="translate(62,109)"/>
<path d="M0 0 C6.57043463 1.09507244 7.48519842 1.80768425 12 6 C8.07103605 6 4.80106772 4.99700137 1 4 C1 6.97 1 9.94 1 13 C0.67 13 0.34 13 0 13 C0 8.71 0 4.42 0 0 Z " fill="#35DFEF" transform="translate(224,9)"/>
<path d="M0 0 C0.99 0.33 1.98 0.66 3 1 C-5.261959 12.70615034 -5.261959 12.70615034 -10 17 C-10 15.68 -10 14.36 -10 13 C-8.34997172 11.64613064 -6.6825613 10.31321858 -5 9 C-4.13034494 6.87053397 -4.13034494 6.87053397 -4 5 C-3.34 5 -2.68 5 -2 5 C-2 4.01 -2 3.02 -2 2 C-1.34 2 -0.68 2 0 2 C0 1.34 0 0.68 0 0 Z " fill="#3D8397" transform="translate(204,80)"/>
<path d="M0 0 C0.66 0.33 1.32 0.66 2 1 C0.21285146 3.3161206 -1.57941805 5.62793272 -3.375 7.9375 C-3.88289062 8.59685547 -4.39078125 9.25621094 -4.9140625 9.93554688 C-5.64882812 10.87817383 -5.64882812 10.87817383 -6.3984375 11.83984375 C-6.84880371 12.42113037 -7.29916992 13.00241699 -7.76318359 13.60131836 C-9 15 -9 15 -11 16 C-10.690625 15.4225 -10.38125 14.845 -10.0625 14.25 C-9.07416636 12.15705816 -8.4831387 10.25464725 -8 8 C-7.34 8 -6.68 8 -6 8 C-6 7.01 -6 6.02 -6 5 C-5.01 4.67 -4.02 4.34 -3 4 C-1.31461399 2.00334686 -1.31461399 2.00334686 0 0 Z " fill="#498C9B" transform="translate(184,108)"/>
<path d="M0 0 C3.24208567 0.35049575 4.61527704 0.56221181 6.8125 3.0625 C7.204375 3.701875 7.59625 4.34125 8 5 C7.35546875 5.22429687 6.7109375 5.44859375 6.046875 5.6796875 C3.75611148 6.82889456 3.75611148 6.82889456 3.390625 9.3828125 C3.34421875 10.28773437 3.2978125 11.19265625 3.25 12.125 C3.19328125 13.03507812 3.1365625 13.94515625 3.078125 14.8828125 C3.03945313 15.93082031 3.03945313 15.93082031 3 17 C2.67 17 2.34 17 2 17 C2 11.72 2 6.44 2 1 C1.34 0.67 0.68 0.34 0 0 Z " fill="#32E3F1" transform="translate(361,87)"/>
<path d="M0 0 C1.875 0.3125 1.875 0.3125 4 1 C6 4 6 4 6 8 C6.99 8.33 7.98 8.66 9 9 C8.67 10.32 8.34 11.64 8 13 C6.66094733 11.2126038 5.32890934 9.41995047 4 7.625 C3.2575 6.62726563 2.515 5.62953125 1.75 4.6015625 C0 2 0 2 0 0 Z " fill="#26E7F8" transform="translate(224,79)"/>
<path d="M0 0 C0.66 0.33 1.32 0.66 2 1 C-2.455 6.94 -2.455 6.94 -7 13 C-7.33 11.68 -7.66 10.36 -8 9 C-7.34 9 -6.68 9 -6 9 C-6 7.35 -6 5.7 -6 4 C-4.35 3.67 -2.7 3.34 -1 3 C-0.67 2.01 -0.34 1.02 0 0 Z " fill="#3E8FA0" transform="translate(89,163)"/>
<path d="M0 0 C0.99 0 1.98 0 3 0 C3.2475 0.61875 3.495 1.2375 3.75 1.875 C5.20628639 4.35068687 6.37812506 4.95125002 9 6 C9 6.33 9 6.66 9 7 C11.31 7.33 13.62 7.66 16 8 C16 8.33 16 8.66 16 9 C12.86427855 9.51195452 10.12034233 9.66652882 7 9 C4.14970467 6.69188041 2.01135468 4.05906997 0 1 C0 0.67 0 0.34 0 0 Z " fill="#47E2F4" transform="translate(279,150)"/>
<path d="M0 0 C0.640625 1.8359375 0.640625 1.8359375 1 4 C-1.46026571 6.87030999 -3.85489214 8.90326143 -7 11 C-6.68232368 5.59950264 -3.80003673 3.47662935 0 0 Z " fill="#3984A0" transform="translate(335,114)"/>
<path d="M0 0 C0.33 0.99 0.66 1.98 1 3 C0.01 3.33 -0.98 3.66 -2 4 C-2.4640625 5.3921875 -2.4640625 5.3921875 -2.9375 6.8125 C-4.08241415 10.24724246 -5.21863134 11.74013796 -8 14 C-8.66 14 -9.32 14 -10 14 C-8.43632643 10.47761953 -6.30504111 7.72876006 -3.875 4.75 C-3.15054688 3.85796875 -2.42609375 2.9659375 -1.6796875 2.046875 C-0.84824219 1.03367187 -0.84824219 1.03367187 0 0 Z " fill="#488AA4" transform="translate(163,76)"/>
<path d="M0 0 C0.33 0.66 0.66 1.32 1 2 C-0.109375 4.3828125 -0.109375 4.3828125 -1.75 7.125 C-2.28109375 8.03507812 -2.8121875 8.94515625 -3.359375 9.8828125 C-3.90078125 10.58148438 -4.4421875 11.28015625 -5 12 C-5.99 12 -6.98 12 -8 12 C-8 12.66 -8 13.32 -8 14 C-8.66 13.67 -9.32 13.34 -10 13 C-5.05 6.565 -5.05 6.565 0 0 Z " fill="#498BA5" transform="translate(174,62)"/>
<path d="M0 0 C1.32 0.33 2.64 0.66 4 1 C4 1.99 4 2.98 4 4 C4.99 4 5.98 4 7 4 C7 4.66 7 5.32 7 6 C7.66 6 8.32 6 9 6 C9.33 7.98 9.66 9.96 10 12 C6.0747975 8.29909479 3.05419844 4.45040344 0 0 Z " fill="#2DE7F9" transform="translate(244,106)"/>
<path d="M0 0 C3.26954202 0.56371414 4.82575883 1.49962266 7 4 C7.33 2.68 7.66 1.36 8 0 C8 2.64 8 5.28 8 8 C3.96615872 5.92856799 2.07143201 4.03384128 0 0 Z " fill="#318FAB" transform="translate(114,168)"/>
<path d="M0 0 C3.26008643 3.16952847 6.22237877 6.39937989 9 10 C8.67 10.66 8.34 11.32 8 12 C6.33333333 10.33333333 4.66666667 8.66666667 3 7 C2.401875 6.484375 1.80375 5.96875 1.1875 5.4375 C0 4 0 4 0 0 Z " fill="#58E6F4" transform="translate(287,79)"/>
<path d="M0 0 C1.32 0 2.64 0 4 0 C4 1.32 4 2.64 4 4 C4.99 4 5.98 4 7 4 C7.33 5.98 7.66 7.96 8 10 C4.71211176 6.88983545 2.16264012 3.98381075 0 0 Z " fill="#40839C" transform="translate(340,146)"/>
<path d="M0 0 C0.66 0 1.32 0 2 0 C2.33 1.32 2.66 2.64 3 4 C2.01 4 1.02 4 0 4 C0 4.99 0 5.98 0 7 C-1.65 7.33 -3.3 7.66 -5 8 C-4.21718695 6.66144944 -3.42348123 5.32926356 -2.625 4 C-2.18414062 3.2575 -1.74328125 2.515 -1.2890625 1.75 C-0.86367188 1.1725 -0.43828125 0.595 0 0 Z " fill="#5EE1ED" transform="translate(325,14)"/>
<path d="M0 0 C-0.25 1.875 -0.25 1.875 -1 4 C-2.875 5.3125 -2.875 5.3125 -5 6 C-5.99 5.67 -6.98 5.34 -8 5 C-2.25 0 -2.25 0 0 0 Z " fill="#3B859D" transform="translate(362,88)"/>
<path d="M0 0 C0.33 0 0.66 0 1 0 C1 2.64 1 5.28 1 8 C-3.67692308 6.52307692 -3.67692308 6.52307692 -5.3125 3.875 C-5.539375 3.25625 -5.76625 2.6375 -6 2 C-5.34 2 -4.68 2 -4 2 C-4 2.66 -4 3.32 -4 4 C-3.01 4 -2.02 4 -1 4 C-0.67 2.68 -0.34 1.36 0 0 Z " fill="#349FB8" transform="translate(403,213)"/>
<path d="M0 0 C3.28788824 3.11016455 5.83735988 6.01618925 8 10 C6.25 9.9375 6.25 9.9375 4 9 C1.99159505 6.29950956 0 3.44873267 0 0 Z " fill="#55E5F4" transform="translate(236,16)"/>
<path d="M0 0 C0.66 0 1.32 0 2 0 C1.67 1.32 1.34 2.64 1 4 C-2.3 4 -5.6 4 -9 4 C-9 3.67 -9 3.34 -9 3 C-8.43410156 2.86722656 -7.86820312 2.73445312 -7.28515625 2.59765625 C-6.18494141 2.33275391 -6.18494141 2.33275391 -5.0625 2.0625 C-4.33160156 1.88847656 -3.60070312 1.71445313 -2.84765625 1.53515625 C-1.00030102 1.16112431 -1.00030102 1.16112431 0 0 Z " fill="#1DE6FB" transform="translate(296,154)"/>
<path d="M0 0 C5.875 4.625 5.875 4.625 7 8 C6.34 8 5.68 8 5 8 C5 7.34 5 6.68 5 6 C3.68 6 2.36 6 1 6 C0.67 4.02 0.34 2.04 0 0 Z " fill="#4EDEEA" transform="translate(105,107)"/>
<path d="M0 0 C5.875 4.625 5.875 4.625 7 8 C6.34 8 5.68 8 5 8 C5 7.34 5 6.68 5 6 C3.68 5.67 2.36 5.34 1 5 C0.67 3.35 0.34 1.7 0 0 Z " fill="#51DFEB" transform="translate(369,92)"/>
<path d="M0 0 C0.66 0.33 1.32 0.66 2 1 C0.02 3.31 -1.96 5.62 -4 8 C-4.33 6.68 -4.66 5.36 -5 4 C-3.35 2.68 -1.7 1.36 0 0 Z " fill="#4E8695" transform="translate(199,89)"/>
<path d="M0 0 C0.66 0 1.32 0 2 0 C2 0.66 2 1.32 2 2 C2.99 2 3.98 2 5 2 C5.33 3.98 5.66 5.96 6 8 C1.125 3.375 1.125 3.375 0 0 Z " fill="#2DE6F8" transform="translate(238,98)"/>
<path d="M0 0 C1.98 0.99 3.96 1.98 6 3 C6 3.66 6 4.32 6 5 C4.68 5.33 3.36 5.66 2 6 C1.34 4.02 0.68 2.04 0 0 Z " fill="#5CDDEB" transform="translate(331,21)"/>
<path d="M0 0 C-0.66 1.65 -1.32 3.3 -2 5 C-3.32 4.67 -4.64 4.34 -6 4 C-6 3.34 -6 2.68 -6 2 C-2.25 0 -2.25 0 0 0 Z " fill="#6CE3F2" transform="translate(320,22)"/>
</svg>
