<?xml version="1.0" standalone="no"?>
<!DOCTYPE svg PUBLIC "-//W3C//DTD SVG 20010904//EN"
 "http://www.w3.org/TR/2001/REC-SVG-20010904/DTD/svg10.dtd">
<svg version="1.0" xmlns="http://www.w3.org/2000/svg"
 width="500.000000pt" height="408.000000pt" viewBox="0 0 500.000000 408.000000"
 preserveAspectRatio="xMidYMid meet">
<metadata>
Created by potrace 1.16, written by Peter Selinger 2001-2019
</metadata>
<g transform="translate(0.000000,408.000000) scale(0.100000,-0.100000)"
fill="#000000" stroke="none">
<path d="M775 4069 c-77 -11 -156 -34 -227 -66 l-57 -25 -27 21 c-36 29 -122
29 -180 0 -99 -47 -229 -245 -270 -409 -37 -146 22 -290 118 -290 20 0 27 -8
37 -42 57 -193 241 -389 462 -492 118 -55 165 -66 276 -66 109 0 183 18 293
72 47 23 94 41 104 40 27 -3 275 -125 410 -200 129 -72 174 -83 238 -54 80 35
120 143 94 255 -25 108 -66 151 -256 267 -74 46 -148 91 -165 101 l-30 19 40
0 c48 0 269 -25 344 -40 105 -20 180 25 202 123 16 76 -6 148 -66 215 -80 89
-154 112 -465 146 -199 22 -251 31 -260 46 -4 7 -10 34 -13 62 -29 238 -270
365 -602 317z m283 -64 c82 -20 134 -47 182 -96 43 -44 80 -130 80 -183 0 -30
-3 -34 -22 -29 -62 15 -169 77 -233 135 l-69 63 29 -45 c118 -185 204 -221
625 -265 177 -19 282 -37 331 -58 108 -45 175 -174 132 -257 -29 -56 -59 -65
-161 -46 -48 8 -166 22 -262 31 -96 8 -221 20 -277 26 -100 10 -249 3 -258
-11 -2 -4 27 -10 65 -14 134 -12 211 -34 305 -88 152 -86 368 -220 398 -247
108 -99 85 -321 -34 -321 -15 0 -60 18 -101 40 -270 148 -471 240 -587 270
-78 20 -221 38 -221 28 0 -3 48 -23 108 -44 59 -20 111 -41 116 -45 11 -10
-53 -42 -139 -68 -216 -68 -466 16 -670 224 -82 83 -128 156 -167 267 -33 95
-34 111 -8 214 31 123 112 275 184 349 141 143 439 221 654 170z m-650 -41
c12 -4 22 -9 22 -13 0 -4 -31 -38 -68 -76 -103 -106 -199 -309 -217 -457 -8
-65 -22 -73 -54 -32 -30 39 -37 123 -16 202 34 125 135 295 200 338 22 14 90
43 105 43 3 1 15 -2 28 -5z"/>
<path d="M404 3726 c-15 -38 21 -58 192 -108 58 -17 77 -19 86 -10 29 29 -15
51 -254 129 -11 3 -20 -1 -24 -11z"/>
<path d="M343 3563 c-9 -24 24 -47 196 -131 117 -57 158 -72 170 -65 9 6 16
16 16 24 0 14 -336 189 -363 189 -7 0 -15 -7 -19 -17z"/>
<path d="M307 3443 c-18 -17 -2 -44 51 -89 129 -112 192 -145 205 -110 8 19
-7 35 -83 88 -36 25 -81 62 -99 82 -33 34 -59 44 -74 29z"/>
<path d="M3988 3440 c-71 -13 -151 -53 -198 -100 -38 -38 -100 -148 -100 -177
0 -9 -18 -13 -56 -13 -77 0 -126 -17 -175 -59 -84 -71 -103 -183 -49 -278 16
-28 34 -54 40 -58 6 -4 -3 -22 -23 -46 -57 -66 -72 -156 -41 -258 18 -62 82
-132 135 -150 29 -9 37 -19 53 -64 45 -126 162 -177 404 -177 199 0 374 46
532 137 76 45 202 166 250 241 31 49 36 52 74 52 62 0 97 28 138 110 34 67 31
230 -6 353 -51 170 -111 254 -209 292 -43 16 -50 16 -93 2 l-47 -15 -50 39
c-68 54 -215 124 -309 148 -94 24 -206 33 -270 21z m172 -61 c232 -37 458
-182 535 -344 54 -115 92 -312 78 -413 -18 -141 -175 -317 -364 -410 -205
-100 -514 -128 -671 -60 -44 19 -108 77 -108 98 0 4 -3 15 -6 24 -5 14 4 16
57 16 35 1 94 7 132 14 67 13 97 26 61 26 -108 1 -319 22 -342 34 -90 47 -128
173 -83 273 28 60 48 67 172 64 184 -4 257 18 109 33 -127 14 -202 34 -233 63
-42 40 -57 75 -57 131 0 60 28 107 85 140 36 21 49 23 126 18 191 -10 309 27
409 129 l55 57 -65 -41 c-79 -49 -159 -78 -240 -87 -69 -8 -71 -4 -41 62 23
50 84 120 123 140 39 20 126 43 168 43 19 1 64 -4 100 -10z m624 -217 c21 -15
52 -49 67 -77 62 -111 104 -333 80 -421 -16 -61 -52 -108 -83 -112 -26 -3 -27
-2 -22 35 3 21 7 46 9 56 7 37 -17 210 -41 293 -26 91 -57 158 -98 213 -20 26
-23 37 -13 43 18 12 57 1 101 -30z"/>
<path d="M4555 2974 c-11 -3 -60 -8 -110 -12 -83 -6 -90 -9 -93 -30 -5 -33 15
-36 148 -23 140 13 152 17 148 45 -2 16 -10 21 -38 22 -19 1 -44 0 -55 -2z"/>
<path d="M4565 2799 c-33 -10 -107 -28 -165 -39 -58 -12 -113 -24 -122 -26
-23 -7 -23 -43 -1 -51 18 -7 196 27 313 61 68 19 75 23 75 46 0 32 -22 34
-100 9z"/>
<path d="M4586 2649 c-27 -17 -79 -42 -115 -56 -70 -27 -93 -46 -84 -69 7 -20
31 -17 104 12 108 44 190 96 187 119 -4 30 -37 28 -92 -6z"/>
<path d="M2089 1882 c-75 -30 -114 -67 -227 -211 -166 -213 -240 -297 -368
-421 l-119 -115 -7 69 c-19 190 -82 303 -197 354 -44 20 -189 21 -244 3 -104
-35 -102 -168 4 -390 l49 -104 -22 -185 -23 -184 -31 -13 c-64 -27 -101 -109
-90 -203 17 -146 194 -397 320 -453 68 -30 126 -34 170 -14 20 10 41 25 46 35
8 15 24 17 147 13 118 -5 151 -2 228 16 113 27 268 102 360 175 157 125 253
179 537 305 269 119 286 128 308 171 11 22 20 52 20 68 0 64 -80 135 -167 148
-27 4 -73 -1 -135 -16 -74 -17 -241 -50 -256 -50 -21 0 136 113 303 219 151
95 185 134 185 206 0 109 -118 205 -255 207 -33 0 -78 -5 -99 -12 -28 -9 -264
-138 -380 -208 -11 -6 -5 4 57 98 28 41 84 119 125 173 68 89 76 104 80 152 6
68 -20 114 -85 152 -61 35 -167 42 -234 15z m178 -53 c48 -18 83 -59 83 -97 0
-41 -10 -60 -67 -130 -130 -159 -429 -640 -410 -658 3 -3 28 27 57 67 29 40
71 92 93 116 40 43 185 136 416 264 105 58 118 63 176 63 143 0 252 -121 186
-206 -11 -13 -80 -62 -153 -108 -242 -153 -442 -317 -511 -420 -48 -70 -59
-90 -54 -90 4 0 47 36 97 80 49 44 98 83 108 88 9 5 79 19 156 32 76 12 173
31 215 42 86 22 136 19 188 -13 63 -39 54 -103 -19 -140 -23 -12 -137 -64
-253 -116 -306 -137 -367 -173 -540 -313 -67 -55 -212 -125 -309 -150 -145
-37 -344 -24 -429 29 -79 49 -212 213 -264 328 -37 79 -41 193 -14 399 11 88
17 172 14 185 -3 13 -25 65 -48 114 -52 107 -75 183 -75 242 0 61 28 78 134
78 65 0 89 -5 124 -23 86 -46 130 -141 138 -302 7 -126 10 -140 34 -140 28 0
184 135 289 248 97 106 143 161 274 329 97 124 160 185 209 200 44 15 120 15
155 2z m-1317 -1261 c24 -125 169 -342 282 -423 74 -53 73 -52 58 -70 -33 -39
-141 -3 -219 74 -130 128 -212 292 -197 394 6 41 36 87 55 87 5 0 14 -28 21
-62z"/>
<path d="M1213 619 c-99 -93 -118 -121 -87 -133 20 -8 62 23 159 116 59 56 68
70 59 84 -6 10 -16 20 -22 22 -6 2 -55 -38 -109 -89z"/>
<path d="M1438 554 c-57 -42 -129 -92 -161 -112 -44 -27 -57 -40 -55 -56 5
-34 32 -29 110 20 79 51 229 162 240 178 8 12 0 33 -17 40 -8 3 -60 -29 -117
-70z"/>
<path d="M1530 395 c-25 -13 -79 -36 -120 -51 -41 -15 -81 -32 -88 -39 -17
-15 -5 -45 18 -45 42 0 247 87 270 115 10 12 10 18 0 30 -16 20 -27 19 -80
-10z"/>
</g>
</svg>
