<?xml version="1.0" standalone="no"?>
<!DOCTYPE svg PUBLIC "-//W3C//DTD SVG 20010904//EN"
 "http://www.w3.org/TR/2001/REC-SVG-20010904/DTD/svg10.dtd">
<svg version="1.0" xmlns="http://www.w3.org/2000/svg"
 width="564.000000pt" height="564.000000pt" viewBox="0 0 564.000000 564.000000"
 preserveAspectRatio="xMidYMid meet">
<metadata>
Created by potrace 1.16, written by Peter Selinger 2001-2019
</metadata>
<g transform="translate(0.000000,564.000000) scale(0.100000,-0.100000)"
fill="#000000" stroke="none">
<path d="M2734 4100 c-147 -20 -307 -93 -428 -196 -88 -74 -160 -159 -150
-175 4 -8 3 -9 -4 -5 -28 17 -138 -204 -176 -354 -24 -92 -27 -124 -26 -261 0
-233 29 -376 111 -544 97 -202 259 -331 488 -393 86 -23 114 -25 271 -25 159
0 184 2 275 27 95 26 189 68 248 111 62 44 116 98 110 108 -3 6 -1 7 5 3 6 -4
19 6 29 21 10 15 26 37 36 48 24 27 91 167 116 245 49 154 68 473 37 620 -27
122 -107 317 -126 305 -6 -3 -7 0 -4 8 3 8 -6 28 -20 45 -15 16 -26 33 -26 37
0 15 -64 84 -73 78 -6 -3 -7 -1 -4 5 17 26 -223 212 -278 216 -13 0 -21 4 -19
7 4 7 -23 19 -102 43 -42 14 -207 39 -224 35 -3 -1 -32 -5 -66 -9z"/>
<path d="M2690 1840 c-159 -12 -405 -64 -393 -83 3 -6 1 -7 -6 -3 -15 9 -142
-34 -135 -46 3 -4 -1 -5 -8 -3 -26 10 -278 -127 -383 -208 -102 -80 -203 -174
-310 -291 -30 -33 -108 -141 -153 -212 -166 -266 -262 -567 -279 -876 l-6
-118 1801 0 1802 0 0 64 c0 159 -50 417 -116 594 -70 190 -274 535 -305 516
-5 -3 -6 1 -4 8 7 18 -214 240 -232 233 -8 -2 -12 -1 -9 4 13 20 -178 153
-337 235 -124 65 -301 126 -443 155 -94 19 -316 43 -366 39 -13 0 -66 -4 -118
-8z"/>
</g>
</svg>
