<?xml version="1.0" standalone="no"?>
<!DOCTYPE svg PUBLIC "-//W3C//DTD SVG 20010904//EN"
 "http://www.w3.org/TR/2001/REC-SVG-20010904/DTD/svg10.dtd">
<svg version="1.0" xmlns="http://www.w3.org/2000/svg"
 width="500.000000pt" height="500.000000pt" viewBox="0 0 500.000000 500.000000"
 preserveAspectRatio="xMidYMid meet">
<metadata>
Created by potrace 1.16, written by Peter Selinger 2001-2019
</metadata>
<g transform="translate(0.000000,500.000000) scale(0.100000,-0.100000)"
fill="#000000" stroke="none">
<path d="M493 4295 c-17 -7 -36 -22 -42 -33 -6 -11 -27 -89 -47 -174 -33 -144
-50 -255 -75 -493 -6 -55 -11 -101 -13 -102 -1 -2 -34 45 -72 103 -76 119
-106 141 -168 130 -21 -4 -46 -16 -57 -27 -19 -19 -20 -31 -17 -217 4 -180 6
-205 32 -287 41 -136 98 -244 171 -323 35 -37 79 -76 99 -87 20 -11 36 -23 36
-27 0 -5 7 -8 15 -8 8 0 15 -5 15 -11 0 -7 6 -17 14 -23 8 -6 18 -28 22 -50 8
-48 2 -45 -95 42 -76 67 -104 82 -158 82 -27 0 -43 -8 -70 -35 -34 -34 -35
-38 -31 -93 9 -121 187 -434 315 -554 93 -86 233 -163 320 -175 31 -4 42 -10
46 -27 2 -11 8 -29 12 -38 11 -27 -10 -23 -105 22 -97 45 -172 54 -208 22 -21
-18 -42 -71 -42 -107 0 -44 157 -246 202 -261 10 -3 18 -12 18 -19 0 -20 119
-115 153 -122 15 -3 27 -11 27 -18 0 -14 131 -76 210 -99 30 -8 89 -20 130
-26 41 -6 89 -13 106 -15 20 -4 57 -28 100 -65 37 -33 78 -63 91 -66 13 -4 23
-12 23 -19 0 -8 32 -37 70 -66 39 -28 70 -57 70 -64 0 -7 -7 -32 -15 -55 -33
-92 -8 -177 60 -206 29 -12 161 -14 837 -14 442 0 827 3 856 7 42 5 61 13 89
39 34 33 36 36 30 87 -6 53 -26 107 -39 107 -5 0 -8 10 -8 23 0 23 15 37 106
98 24 17 44 37 44 45 0 8 8 14 18 14 10 0 38 21 62 46 68 69 99 84 207 100 54
8 136 26 183 40 101 31 240 100 240 120 0 8 7 14 15 14 20 0 152 115 160 140
3 11 13 20 20 20 20 0 134 149 145 190 12 46 -3 110 -31 133 -35 28 -112 23
-189 -14 -36 -17 -82 -37 -102 -44 l-37 -14 17 45 c15 42 18 44 55 44 62 0
222 88 311 171 41 39 83 87 93 109 10 22 23 40 30 40 36 1 162 239 188 354 26
117 -1 174 -88 183 -49 6 -102 -15 -111 -45 -3 -10 -18 -23 -33 -29 -16 -7
-48 -29 -72 -50 l-44 -38 7 40 c4 22 14 44 22 48 8 4 14 15 14 22 0 8 7 15 15
15 8 0 15 4 15 9 0 5 11 12 25 15 14 4 25 13 25 21 0 8 6 15 14 15 8 0 37 25
65 56 63 68 150 242 186 368 23 80 25 106 25 272 0 179 -1 184 -22 198 -13 8
-38 17 -56 21 -60 12 -86 -8 -164 -128 -40 -60 -73 -106 -75 -101 -1 5 -9 79
-18 164 -14 142 -28 230 -71 454 -21 108 -49 165 -90 182 -48 20 -72 17 -99
-11 -35 -34 -33 -87 11 -257 19 -77 33 -142 31 -145 -7 -6 -57 26 -78 49 -9
10 -21 18 -27 18 -5 0 -12 8 -15 19 -6 24 -84 70 -131 78 -69 11 -125 -59
-112 -141 10 -57 100 -295 154 -401 62 -124 99 -180 176 -265 67 -75 77 -102
57 -154 -6 -15 -10 -11 -26 23 -10 23 -24 41 -32 41 -7 0 -13 9 -13 20 0 11
-24 46 -54 77 -53 54 -56 56 -96 50 -98 -13 -118 -80 -102 -327 13 -195 40
-329 93 -463 38 -94 48 -157 30 -186 -11 -17 -12 -14 -51 102 -38 118 -60 146
-115 153 -78 10 -127 -47 -174 -201 -48 -154 -64 -388 -40 -591 l11 -94 -27
-35 c-14 -20 -31 -33 -36 -29 -6 3 -7 43 -3 102 11 162 -22 222 -120 222 -33
0 -46 -7 -80 -43 -103 -108 -257 -428 -305 -633 l-12 -50 -52 25 c-48 24 -62
26 -184 26 l-132 0 -7 30 c-9 44 -52 126 -82 158 -24 26 -32 28 -76 24 -52 -5
-65 -17 -78 -72 -5 -22 0 -45 18 -84 13 -29 24 -55 24 -57 0 -2 -112 -4 -250
-4 -137 0 -250 2 -250 5 0 3 13 31 29 63 29 57 123 337 136 402 4 19 11 52 16
73 l10 37 58 0 59 0 17 -69 c24 -97 44 -127 92 -134 47 -6 94 18 107 56 7 18
6 46 -2 85 -7 32 -12 77 -12 100 0 37 4 43 32 58 18 9 71 54 118 99 92 88 80
83 235 112 62 11 187 66 257 112 91 60 256 220 293 284 36 62 102 223 121 295
9 35 17 127 21 238 7 203 -2 262 -45 307 l-26 27 -180 1 c-100 0 -201 4 -226
7 -44 7 -44 7 -17 19 15 7 27 19 27 28 0 8 6 15 14 15 20 0 40 128 33 207 -8
87 -35 135 -88 159 -42 18 -74 19 -829 19 -748 0 -788 -1 -827 -19 -24 -11
-53 -35 -68 -57 -24 -34 -27 -47 -26 -118 1 -136 26 -210 77 -233 13 -6 24
-15 24 -20 0 -5 -99 -7 -219 -6 l-219 3 -31 -29 c-49 -47 -54 -78 -48 -285 4
-156 9 -202 31 -286 31 -119 120 -305 153 -320 12 -5 24 -19 27 -31 8 -32 145
-156 232 -210 83 -52 197 -94 318 -119 77 -15 81 -18 158 -90 44 -41 100 -89
124 -107 44 -31 45 -34 39 -73 -16 -99 -69 -274 -132 -434 l-68 -173 -100 6
c-116 8 -180 -3 -233 -39 l-37 -25 -3 32 c-4 51 -21 113 -68 240 -82 221 -155
352 -239 426 -53 47 -93 54 -146 26 -46 -24 -59 -66 -59 -201 l-1 -118 -30 33
c-21 23 -28 39 -23 50 4 10 9 109 11 222 4 153 1 231 -11 307 -35 230 -106
353 -204 353 -68 0 -129 -102 -149 -247 -7 -53 -19 -55 -32 -5 -15 52 -14 56
18 115 74 133 111 327 111 590 0 239 -17 277 -115 262 -61 -9 -87 -33 -151
-141 -31 -52 -58 -94 -60 -94 -2 0 -4 20 -4 44 0 46 -2 42 113 193 121 157
262 481 274 629 5 54 3 63 -20 90 -22 25 -32 29 -75 29 -42 0 -55 -5 -95 -38
-73 -60 -162 -126 -165 -122 -2 1 11 58 28 126 17 68 33 152 37 186 5 58 4 63
-22 87 -31 29 -55 32 -102 11z m2747 -645 l0 -50 -504 0 -505 0 -20 -26 c-25
-32 -26 -60 -6 -101 14 -28 19 -30 92 -37 42 -3 249 -6 460 -6 l383 0 -1 -222
c0 -226 -9 -357 -29 -438 -6 -25 -15 -65 -20 -90 -11 -58 -54 -166 -82 -204
-12 -16 -38 -62 -58 -101 -20 -39 -47 -84 -61 -100 -67 -80 -104 -116 -125
-121 -13 -4 -24 -12 -24 -19 0 -18 -66 -59 -138 -85 -69 -25 -142 -24 -220 3
-53 18 -112 58 -112 74 0 7 -15 19 -32 26 -38 16 -118 99 -118 122 0 8 -7 15
-15 15 -8 0 -15 5 -15 11 0 6 -20 41 -44 78 -153 232 -205 464 -191 859 l7
192 32 0 c49 0 105 19 116 40 20 36 12 87 -16 109 -23 18 -41 21 -132 21
l-105 0 7 38 c3 20 6 43 6 50 0 9 154 12 735 12 l735 0 0 -50z m-2904 -527 c8
-29 14 -72 12 -95 l-4 -43 -19 42 c-11 24 -25 43 -31 43 -18 0 -116 234 -107
257 9 22 132 -147 149 -204z m4434 72 c-36 -90 -71 -154 -100 -180 -20 -18
-20 -17 -20 31 0 72 16 118 58 168 20 25 48 60 62 79 l25 35 3 -27 c2 -15 -11
-63 -28 -106z m-3080 -90 c0 -276 30 -452 109 -637 23 -54 41 -99 41 -102 0
-28 -158 52 -247 124 -42 34 -69 65 -85 99 -12 28 -28 50 -34 51 -15 0 -90
163 -109 236 -22 85 -38 249 -30 322 l7 62 174 0 174 0 0 -155z m1970 17 c0
-160 -10 -222 -53 -341 -21 -58 -42 -97 -66 -122 -51 -52 -131 -146 -131 -154
0 -28 -151 -117 -217 -129 l-32 -5 20 52 c93 231 128 421 129 685 l0 152 175
0 175 0 0 -138z m-3232 -729 c7 -7 16 -13 20 -13 4 0 24 -15 45 -33 35 -32 96
-152 83 -164 -9 -10 -73 37 -122 89 -57 60 -89 110 -100 152 l-7 30 34 -24
c19 -14 40 -30 47 -37z m4207 30 c-4 -10 -11 -32 -16 -48 -11 -40 -104 -143
-135 -151 -13 -3 -24 -12 -24 -19 0 -7 -7 -15 -15 -19 -23 -8 -19 37 6 87 24
47 59 80 101 98 15 6 28 17 28 24 0 13 37 43 54 44 4 1 5 -7 1 -16z m-3757
-810 c45 -14 82 -30 82 -35 0 -6 18 -31 41 -56 22 -26 36 -48 31 -50 -31 -10
-184 75 -257 142 l-40 37 30 -6 c17 -3 67 -18 113 -32z m3340 -6 c-89 -69
-156 -109 -196 -117 -20 -4 -46 -11 -57 -16 -30 -12 35 66 82 99 43 30 165 76
202 77 21 0 16 -6 -31 -43z m-1014 -612 c22 -58 37 -107 35 -108 -36 -25 -91
-27 -754 -27 -381 0 -700 3 -709 6 -22 8 -21 10 25 129 l42 105 661 0 662 0
38 -105z"/>
</g>
</svg>
